# Made in Blockbench 4.2.4
mtllib kitap.mtl

o cube
v 0.53125 1.4375 0.15625
v 0.53125 1.4375 -0.15625
v 0.53125 5.551115123125783e-17 0.15625
v 0.53125 5.551115123125783e-17 -0.15625
v -0.65625 1.4375 0.15625
v -0.65625 1.4375 -0.15625
v -0.65625 5.551115123125783e-17 0.15625
v -0.65625 5.551115123125783e-17 -0.15625
v 0.53125 1.4375 0.21875
v -0.53125 1.4375 0.21875
v 0.53125 5.551115123125783e-17 0.21875
v -0.53125 5.551115123125783e-17 0.21875
v 0.53125 1.4375 -0.21875
v 0.53125 5.551115123125783e-17 -0.21875
v -0.53125 1.4375 -0.21875
v -0.53125 5.551115123125783e-17 -0.21875
v -0.71875 1.4375 0.15625
v -0.71875 1.4375 -0.15625
v -0.71875 5.551115123125783e-17 0.15625
v -0.71875 5.551115123125783e-17 -0.15625
vt 0.078125 0.640625
vt 0 0.640625
vt 0 0.28125
vt 0.078125 0.28125
vt 0.15625 0.28125
vt 0.15625 0.640625
vt 0.078125 0.640625
vt 0.078125 0.28125
vt 0.15625 0.5625
vt 0.421875 0.5625
vt 0.421875 0.640625
vt 0.15625 0.640625
vt 0.6875 0.5625
vt 0.6875 0.640625
vt 0.421875 0.640625
vt 0.421875 0.5625
vt 0.265625 0.640625
vt 0.265625 1
vt 0 1
vt 0 0.640625
vt 0.53125 1
vt 0.265625 1
vt 0.265625 0.640625
vt 0.53125 0.640625
vt 0.1328125 0.767578125
vt 0.1328125 0.408203125
vt 0.1484375 0.408203125
vt 0.1484375 0.767578125
vt 0 0.984375
vt 0.265625 0.984375
vt 0.265625 1
vt 0 1
vt 0.015625 0.640625
vt 0.015625 1
vt 0 1
vt 0 0.640625
vt 0.265625 0.8125
vt 0 0.8125
vt 0 0.796875
vt 0.265625 0.796875
vt 0.34375 1
vt 0.078125 1
vt 0.078125 0.984375
vt 0.34375 0.984375
vt 0.123046875 0.412109375
vt 0.123046875 0.771484375
vt 0.107421875 0.771484375
vt 0.107421875 0.412109375
vt 0.078125 0.8125
vt 0.34375 0.8125
vt 0.34375 0.828125
vt 0.078125 0.828125
vt 0.265625 1
vt 0.265625 0.640625
vt 0.28125 0.640625
vt 0.28125 1
vt 0.078125 0.90625
vt 0.078125 0.546875
vt 0.09375 0.546875
vt 0.09375 0.90625
vt 0.0625 0.84375
vt 0.0625 0.765625
vt 0.078125 0.765625
vt 0.078125 0.84375
vt 0.0462890625 0.6412109374999999
vt 0.046875 0.90625
vt 0.03125 0.90625
vt 0.0306640625 0.6412109374999999
vt 0.05859375 0.72265625
vt 0.05859375 0.64453125
vt 0.07421875 0.64453125
vt 0.07421875 0.72265625
vn 1 0 0
vn -1 0 0
vn 0 1 0
vn 0 -1 0
vn 0 0 1
vn 0 0 -1
vn 1 0 0
vn 0 1 0
vn -0.44721359549995804 0 0.8944271909999161
vn 0 -1 0
vn 0 1 0
vn 1 0 0
vn 0 -1 0
vn -0.44721359549995804 0 -0.8944271909999161
vn 0 0 1
vn 0 1 0
vn 0 0 -1
vn 0 -1 0
usemtl m_0
f 2/1/1 1/2/1 3/3/1 4/4/1
f 19/5/2 17/6/2 18/7/2 20/8/2
f 5/9/3 1/10/3 2/11/3 6/12/3
f 4/13/4 3/14/4 7/15/4 8/16/4
f 11/17/5 9/18/5 10/19/5 12/20/5
f 15/21/6 13/22/6 14/23/6 16/24/6
f 9/25/7 11/26/7 3/27/7 1/28/7
f 10/29/8 9/30/8 1/31/8 5/32/8
f 12/33/9 10/34/9 5/35/9 7/36/9
f 11/37/10 12/38/10 7/39/10 3/40/10
f 13/41/11 15/42/11 6/43/11 2/44/11
f 14/45/12 13/46/12 2/47/12 4/48/12
f 16/49/13 14/50/13 4/51/13 8/52/13
f 15/53/14 16/54/14 8/55/14 6/56/14
f 17/57/15 19/58/15 7/59/15 5/60/15
f 18/61/16 17/62/16 5/63/16 6/64/16
f 20/65/17 18/66/17 6/67/17 8/68/17
f 19/69/18 20/70/18 8/71/18 7/72/18
o cube
v -0.7093750000000001 0.7104166666666659 -0.05937499999999998
v -0.746875 0.7104166666666659 -0.05937499999999999
v -0.7093750000000001 0.6562499999999994 -0.014930555555555638
v -0.734375 0.6562499999999994 -0.014930555555555643
v -0.7093750000000001 0.7104166666666659 0.140625
v -0.7468750000000001 0.7104166666666659 0.14062499999999994
v -0.7093750000000001 0.6562499999999994 0.09618055555555557
v -0.734375 0.6562499999999994 0.09618055555555557
v -0.7093750000000001 0.7645833333333328 -0.05937499999999998
v -0.746875 0.7645833333333328 -0.05937499999999999
v -0.7093750000000001 0.7645833333333328 0.140625
v -0.7468750000000001 0.7645833333333328 0.14062499999999994
v -0.7093750000000001 0.8187499999999993 -0.014930555555555638
v -0.734375 0.8187499999999993 -0.014930555555555643
v -0.7093750000000001 0.8187499999999993 0.09618055555555557
v -0.734375 0.8187499999999993 0.09618055555555557
vt 0.015625 1
vt 0 1
vt 0 0.984375
vt 0.015625 0.984375
vt 0.015625 0.984375
vt 0.015625 1
vt 0 1
vt 0 0.984375
vt 0 0.984375
vt 0.015625 0.984375
vt 0.015625 1
vt 0 1
vt 0.015625 0.984375
vt 0.015625 1
vt 0 1
vt 0 0.984375
vt 0.015625 0.984375
vt 0.015625 1
vt 0 1
vt 0 0.984375
vt 0.015625 1
vt 0 1
vt 0 0.984375
vt 0.015625 0.984375
vt 0.046875 1
vt 0 1
vt 0 0.984375
vt 0.046875 0.984375
vt 0.03125 1
vt 0.015625 1
vt 0.015625 0.984375
vt 0.03125 0.984375
vt 0.046875 1
vt 0 1
vt 0 0.984375
vt 0.046875 0.984375
vt 0.015625 1
vt 0 1
vt 0 0.984375
vt 0.015625 0.984375
vt 0.046875 1
vt 0 1
vt 0 0.984375
vt 0.046875 0.984375
vt 0.03125 1
vt 0.015625 1
vt 0.015625 0.984375
vt 0.03125 0.984375
vt 0.046875 1
vt 0 1
vt 0 0.984375
vt 0.046875 0.984375
vt 0.015625 1
vt 0 1
vt 0 0.984375
vt 0.015625 0.984375
vn 1.716567711268691e-16 -0.6343166116780232 -0.7730733704825902
vn -1.7165677112686902e-16 -0.6343166116780237 0.7730733704825898
vn 0 1 0
vn 0 -1 0
vn 1 0 2.220446049250313e-16
vn -0.9743911956946198 -0.22485950669875934 -2.1635830809044073e-16
vn 1 0 2.220446049250313e-16
vn 2.220446049250313e-16 0 -1
vn -1 0 -2.220446049250313e-16
vn -2.220446049250313e-16 0 1
vn 1 0 2.220446049250313e-16
vn 1.7165677112686907e-16 0.6343166116780234 -0.7730733704825901
vn -0.9743911956946196 0.22485950669875943 -2.1635830809044068e-16
vn -1.7165677112686895e-16 0.6343166116780239 0.7730733704825895
usemtl m_1
f 22/73/19 21/74/19 23/75/19 24/76/19
f 27/77/20 25/78/20 26/79/20 28/80/20
f 35/81/21 33/82/21 34/83/21 36/84/21
f 24/85/22 23/86/22 27/87/22 28/88/22
f 23/89/23 21/90/23 25/91/23 27/92/23
f 26/93/24 22/94/24 24/95/24 28/96/24
f 29/97/25 31/98/25 25/99/25 21/100/25
f 30/101/26 29/102/26 21/103/26 22/104/26
f 32/105/27 30/106/27 22/107/27 26/108/27
f 31/109/28 32/110/28 26/111/28 25/112/28
f 33/113/29 35/114/29 31/115/29 29/116/29
f 34/117/30 33/118/30 29/119/30 30/120/30
f 36/121/31 34/122/31 30/123/31 32/124/31
f 35/125/32 36/126/32 32/127/32 31/128/32