# Made in Blockbench 4.2.4
mtllib Ayna.mtl

o cube
v 0.018750000000000003 0.3125 0.018750000000000003
v 0.018750000000000003 0.3125 -0.018750000000000003
v 0.012500000000000002 0 0.012500000000000002
v 0.012500000000000002 0 -0.012500000000000002
v -0.0125 0.3125 0.018750000000000003
v -0.0125 0.3125 -0.018750000000000003
v -0.00625 0 0.012500000000000002
v -0.00625 0 -0.012500000000000002
v 0.09375 0.375 0.018750000000000003
v 0.09375 0.375 -0.018750000000000003
v -0.09374999999999997 0.375 0.018750000000000003
v -0.09374999999999997 0.375 -0.018750000000000003
v 0.15625 0.4375 0.018750000000000003
v 0.15625 0.4375 -0.018750000000000003
v -0.15624999999999997 0.4375 0.018750000000000003
v -0.15624999999999997 0.4375 -0.018750000000000003
v 0.13749999999999998 0.5 0.018750000000000003
v 0.13749999999999998 0.5 -0.018750000000000003
v -0.13749999999999996 0.5 0.018750000000000003
v -0.13749999999999996 0.5 -0.018750000000000003
v 0.13749999999999998 0.5625 0.018750000000000003
v 0.13749999999999998 0.5625 -0.018750000000000003
v -0.13749999999999996 0.5625 0.018750000000000003
v -0.13749999999999996 0.5625 -0.018750000000000003
v 0.15625 0.625 0.018750000000000003
v 0.15625 0.625 -0.018750000000000003
v -0.15624999999999997 0.625 0.018750000000000003
v -0.15624999999999997 0.625 -0.018750000000000003
v 0.09375 0.6875 0.018750000000000003
v 0.09375 0.6875 -0.018750000000000003
v -0.09374999999999997 0.6875 0.018750000000000003
v -0.09374999999999997 0.6875 -0.018750000000000003
v 0.013750000000000012 0.5625 0.018750000000000003
v 0.013750000000000012 0.5 0.018750000000000003
v 0.015625000000000028 0.4375 0.018750000000000003
v 0.009375000000000022 0.375 0.018750000000000003
v 0.004687500000000001 0.3125 0.018750000000000003
v 0.004687500000000001 0 0.012500000000000002
v 0.004687500000000001 0 -0.012500000000000002
v 0.004687500000000001 0.3125 -0.018750000000000003
v 0.009375000000000022 0.375 -0.018750000000000003
v 0.015625000000000028 0.4375 -0.018750000000000003
v 0.013750000000000012 0.5 -0.018750000000000003
v 0.013750000000000012 0.5625 -0.018750000000000003
v 0.015625000000000028 0.625 -0.018750000000000003
v 0.009375000000000022 0.6875 -0.018750000000000003
v 0.009375000000000022 0.6875 0.018750000000000003
v 0.015625000000000028 0.625 0.018750000000000003
v -0.016499999999999983 0.5 0.018750000000000003
v -0.016499999999999983 0.5625 0.018750000000000003
v -0.018749999999999975 0.625 0.018750000000000003
v -0.011249999999999979 0.6875 0.018750000000000003
v -0.011249999999999979 0.6875 -0.018750000000000003
v -0.018749999999999975 0.625 -0.018750000000000003
v -0.016499999999999983 0.5625 -0.018750000000000003
v -0.016499999999999983 0.5 -0.018750000000000003
v -0.018749999999999975 0.4375 -0.018750000000000003
v -0.011249999999999979 0.375 -0.018750000000000003
v 0.0012500000000000002 0.3125 -0.018750000000000003
v 0.0012500000000000002 0 -0.012500000000000002
v 0.0012500000000000002 0 0.012500000000000002
v 0.0012500000000000002 0.3125 0.018750000000000003
v -0.011249999999999979 0.375 0.018750000000000003
v -0.018749999999999975 0.4375 0.018750000000000003
v 0.013750000000000012 0.5625 0.018749999999999985
v -0.016499999999999983 0.5 0.018749999999999985
v -0.016499999999999983 0.5625 0.018749999999999985
v 0.013750000000000012 0.5 0.018749999999999985
v 0.0012500000000000002 0.043750000000000004 -0.018750000000000003
v -0.0125 0.043750000000000004 -0.018750000000000003
v -0.0125 0.043750000000000004 0.018750000000000003
v 0.0012500000000000002 0.043750000000000004 0.018750000000000003
v 0.004687500000000001 0.043750000000000004 0.018750000000000003
v 0.018750000000000003 0.043750000000000004 0.018750000000000003
v 0.018750000000000003 0.043750000000000004 -0.018750000000000003
v 0.004687500000000001 0.043750000000000004 -0.018750000000000003
vt 0.0625 0.375
vt 0.0625 0.41874999999999996
vt 0 0.41874999999999996
vt 0 0.375
vt 0.375 0.375
vt 0.375 0.41874999999999996
vt 0.3125 0.41874999999999996
vt 0.3125 0.375
vt 0.478125 0.625
vt 0.4575 0.625
vt 0.4575 0.5625
vt 0.478125 0.5625
vt 0.409375 0.5625
vt 0.40249999999999997 0.5625
vt 0.40249999999999997 0.5
vt 0.409375 0.5
vt 0.096875 0.3125
vt 0.096875 0.35624999999999996
vt 0.09 0.35624999999999996
vt 0.09 0.3125
vt 0.16 0.3125
vt 0.16 0.35624999999999996
vt 0.153125 0.35624999999999996
vt 0.153125 0.3125
vt 0.16562500000000002 0.6875
vt 0.14500000000000002 0.6875
vt 0.15749999999999997 0.625
vt 0.16093749999999998 0.625
vt 0.25 0.625
vt 0.1875 0.625
vt 0.1875 0.5
vt 0.25 0.5
vt 0.4640625 0.625
vt 0.46749999999999997 0.625
vt 0.48 0.6875
vt 0.459375 0.6875
vt 0.3125 0.625
vt 0.25 0.625
vt 0.25 0.5
vt 0.3125 0.5
vt 0.171875 0.75
vt 0.1375 0.75
vt 0.14500000000000002 0.6875
vt 0.16562500000000002 0.6875
vt 0.5625 0.5
vt 0.5 0.5
vt 0.5 0.4375
vt 0.5625 0.4375
vt 0.459375 0.6875
vt 0.48 0.6875
vt 0.4875 0.75
vt 0.453125 0.75
vt 0.25 0.4375
vt 0.1875 0.4375
vt 0.1875 0.375
vt 0.25 0.375
vt 0.17 0.8125
vt 0.13975 0.8125
vt 0.1375 0.75
vt 0.171875 0.75
vt 0.3125 0.5
vt 0.25 0.5
vt 0.25 0.4375
vt 0.3125 0.4375
vt 0.453125 0.75
vt 0.4875 0.75
vt 0.48524999999999996 0.8125
vt 0.45499999999999996 0.8125
vt 0.4375 0.5
vt 0.375 0.5
vt 0.375 0.4375
vt 0.4375 0.4375
vt 0.16843750000000002 0.871875
vt 0.14443750000000002 0.871875
vt 0.14443750000000002 0.815625
vt 0.16843750000000002 0.815625
vt 0.5 0.5625
vt 0.4375 0.5625
vt 0.4375 0.5
vt 0.5 0.5
vt 0.45499999999999996 0.8125
vt 0.48524999999999996 0.8125
vt 0.48524999999999996 0.875
vt 0.45499999999999996 0.875
vt 0.25 0.5
vt 0.1875 0.5
vt 0.1875 0.4375
vt 0.25 0.4375
vt 0.171875 0.9375
vt 0.1375 0.9375
vt 0.13975 0.875
vt 0.17 0.875
vt 0.5 0.5
vt 0.4375 0.5
vt 0.4375 0.4375
vt 0.5 0.4375
vt 0.45499999999999996 0.875
vt 0.48524999999999996 0.875
vt 0.4875 0.9375
vt 0.453125 0.9375
vt 0.5625 0.5625
vt 0.5 0.5625
vt 0.5 0.5
vt 0.5625 0.5
vt 0.16562500000000002 1
vt 0.14500000000000002 1
vt 0.1375 0.9375
vt 0.171875 0.9375
vt 0.3125 0.4375
vt 0.25 0.4375
vt 0.25 0.375
vt 0.3125 0.375
vt 0.453125 0.9375
vt 0.4875 0.9375
vt 0.48 1
vt 0.459375 1
vt 0.4375 0.4375
vt 0.375 0.4375
vt 0.375 0.375
vt 0.4375 0.375
vt 0.29375 0.875
vt 0.17 0.875
vt 0.17 0.8125
vt 0.29375 0.8125
vt 0.29375 0.8125
vt 0.17 0.8125
vt 0.171875 0.75
vt 0.3125 0.75
vt 0.3125 0.75
vt 0.171875 0.75
vt 0.16562500000000002 0.6875
vt 0.25 0.6875
vt 0.25 0.6875
vt 0.16562500000000002 0.6875
vt 0.16093749999999998 0.625
vt 0.175 0.625
vt 0.125 0.3125
vt 0.125 0.35624999999999996
vt 0.096875 0.35624999999999996
vt 0.096875 0.3125
vt 0.4375 0.5625
vt 0.409375 0.5625
vt 0.409375 0.5
vt 0.4375 0.5
vt 0.153125 0.3125
vt 0.153125 0.35624999999999996
vt 0.125 0.35624999999999996
vt 0.125 0.3125
vt 0.45 0.625
vt 0.4640625 0.625
vt 0.459375 0.6875
vt 0.375 0.6875
vt 0.375 0.6875
vt 0.459375 0.6875
vt 0.453125 0.75
vt 0.3125 0.75
vt 0.3125 0.75
vt 0.453125 0.75
vt 0.45499999999999996 0.8125
vt 0.33125 0.8125
vt 0.33125 0.8125
vt 0.45499999999999996 0.8125
vt 0.45499999999999996 0.875
vt 0.33125 0.875
vt 0.33125 0.875
vt 0.45499999999999996 0.875
vt 0.453125 0.9375
vt 0.3125 0.9375
vt 0.3125 0.9375
vt 0.453125 0.9375
vt 0.459375 1
vt 0.375 1
vt 0.5625 0.625
vt 0.478125 0.625
vt 0.478125 0.5625
vt 0.5625 0.5625
vt 0.25 1
vt 0.16562500000000002 1
vt 0.171875 0.9375
vt 0.3125 0.9375
vt 0.3125 0.9375
vt 0.171875 0.9375
vt 0.17 0.875
vt 0.29375 0.875
vt 0.01874999999999999 0.8125
vt 0.13975 0.8125
vt 0.13975 0.875
vt 0.01874999999999999 0.875
vt 0.01874999999999999 0.875
vt 0.13975 0.875
vt 0.1375 0.9375
vt 0 0.9375
vt 0 0.9375
vt 0.1375 0.9375
vt 0.14500000000000002 1
vt 0.0625 1
vt 0.375 0.5625
vt 0.4575 0.5625
vt 0.4575 0.625
vt 0.375 0.625
vt 0.5625 1
vt 0.48 1
vt 0.4875 0.9375
vt 0.625 0.9375
vt 0.625 0.9375
vt 0.4875 0.9375
vt 0.48524999999999996 0.875
vt 0.60625 0.875
vt 0.60625 0.875
vt 0.48524999999999996 0.875
vt 0.48524999999999996 0.8125
vt 0.60625 0.8125
vt 0.60625 0.8125
vt 0.48524999999999996 0.8125
vt 0.4875 0.75
vt 0.625 0.75
vt 0.625 0.75
vt 0.4875 0.75
vt 0.48 0.6875
vt 0.5625 0.6875
vt 0.5625 0.6875
vt 0.48 0.6875
vt 0.46749999999999997 0.625
vt 0.48125 0.625
vt 0.1875 0.3125
vt 0.1875 0.35624999999999996
vt 0.16 0.35624999999999996
vt 0.16 0.3125
vt 0.375 0.5
vt 0.40249999999999997 0.5
vt 0.40249999999999997 0.5625
vt 0.375 0.5625
vt 0.09 0.3125
vt 0.09 0.35624999999999996
vt 0.0625 0.35624999999999996
vt 0.0625 0.3125
vt 0.14375 0.625
vt 0.15749999999999997 0.625
vt 0.14500000000000002 0.6875
vt 0.0625 0.6875
vt 0.0625 0.6875
vt 0.14500000000000002 0.6875
vt 0.1375 0.75
vt 0 0.75
vt 0 0.75
vt 0.1375 0.75
vt 0.13975 0.8125
vt 0.01874999999999999 0.8125
vt 0.546875 0.203125
vt 0.577125 0.203125
vt 0.577125 0.265625
vt 0.546875 0.265625
vt 0.578125 0.203125
vt 0.578125 0.265625
vt 0.515625 0.265625
vt 0.515625 0.203125
vt 0.5615 0.265625
vt 0.53125 0.265625
vt 0.53125 0.203125
vt 0.5615 0.203125
vt 0.515625 0.265625
vt 0.515625 0.203125
vt 0.578125 0.203125
vt 0.578125 0.265625
vt 0.16 0.625
vt 0.16 0.35624999999999996
vt 0.1875 0.35624999999999996
vt 0.1875 0.625
vt 0.3125 0.6875
vt 0.3125 0.41874999999999996
vt 0.375 0.41874999999999996
vt 0.375 0.6875
vt 0.0625 0.625
vt 0.0625 0.35624999999999996
vt 0.09 0.35624999999999996
vt 0.09 0.625
vt 0.09 0.625
vt 0.09 0.35624999999999996
vt 0.096875 0.35624999999999996
vt 0.096875 0.625
vt 0.096875 0.625
vt 0.096875 0.35624999999999996
vt 0.125 0.35624999999999996
vt 0.125 0.625
vt 0 0.6875
vt 0 0.41874999999999996
vt 0.0625 0.41874999999999996
vt 0.0625 0.6875
vt 0.125 0.625
vt 0.125 0.35624999999999996
vt 0.153125 0.35624999999999996
vt 0.153125 0.625
vt 0.153125 0.625
vt 0.153125 0.35624999999999996
vt 0.16 0.35624999999999996
vt 0.16 0.625
vn 0.9899494936611667 -0.14142135623730953 0
vn -0.9899494936611667 -0.14142135623730953 0
vn 0 1 0
vn 0 -1 0
vn 0 -0.14142135623730953 0.9899494936611667
vn 0 -0.14142135623730953 -0.9899494936611667
vn 0 0 1
vn 0.6401843996644799 -0.7682212795973759 0
vn 0 0 -1
vn -0.6097107608496926 -0.7926239891046001 0
vn 0 0 1
vn 0.7071067811865476 -0.7071067811865476 0
vn 0 0 -1
vn -0.7071067811865476 -0.7071067811865476 0
vn 0 0 1
vn 0.9578262852211514 0.28734788556634566 0
vn 0 0 -1
vn -0.9578262852211514 0.28734788556634566 0
vn 0 0 1
vn 1 0 0
vn 0 0 -1
vn -1 0 0
vn 0 0 1
vn 0.9578262852211514 -0.28734788556634566 0
vn 0 0 -1
vn -0.9578262852211514 -0.28734788556634566 0
vn 0 0 1
vn 0.7071067811865476 0.7071067811865476 0
vn 0 0 -1
vn -0.7071067811865476 0.7071067811865476 0
vn 0 0 1
vn 0 0 1
vn 0 0 1
vn 0 0 1
vn 0 -0.14142135623730953 0.9899494936611666
vn 0 -1 0
vn 0 -0.14142135623730953 -0.9899494936611666
vn 0 0 -1
vn 0 0 -1
vn 0 0 -1
vn 0 0 -1
vn 0 0 -1
vn 0 0 -1
vn 0 1 0
vn 0 0 1
vn 0 0 1
vn 0 0 1
vn 0 0 1
vn 0 0 1
vn 0 1 0
vn 0 0 -1
vn 0 0 -1
vn 0 0 -1
vn 0 0 -1
vn 0 0 -1
vn 0 0 -1
vn 0 -0.14142135623730953 -0.9899494936611667
vn 0 -1 0
vn 0 -0.14142135623730953 0.9899494936611667
vn 0 0 1
vn 0 0 1
vn 0 0 1
vn 0 -1 0
vn 1 0 0
vn 0 1 0
vn -1 0 0
vn 0 0 -1
vn -1 0 0
vn 0 0 1
vn 0 0 1
vn 0 0 1
vn 1 0 0
vn 0 0 -1
vn 0 0 -1
usemtl m_0
f 4/1/1 75/2/1 74/3/1 3/4/1
f 7/5/2 71/6/2 70/7/2 8/8/2
f 46/9/3 53/10/3 52/11/3 47/12/3
f 38/13/4 61/14/4 60/15/4 39/16/4
f 38/17/5 73/18/5 72/19/5 61/20/5
f 60/21/6 69/22/6 76/23/6 39/24/6
f 36/25/7 63/26/7 62/27/7 37/28/7
f 10/29/8 9/30/8 1/31/8 2/32/8
f 40/33/9 59/34/9 58/35/9 41/36/9
f 11/37/10 12/38/10 6/39/10 5/40/10
f 35/41/11 64/42/11 63/43/11 36/44/11
f 14/45/12 13/46/12 9/47/12 10/48/12
f 41/49/13 58/50/13 57/51/13 42/52/13
f 15/53/14 16/54/14 12/55/14 11/56/14
f 34/57/15 49/58/15 64/59/15 35/60/15
f 18/61/16 17/62/16 13/63/16 14/64/16
f 42/65/17 57/66/17 56/67/17 43/68/17
f 19/69/18 20/70/18 16/71/18 15/72/18
usemtl m_1
f 65/73/19 67/74/19 66/75/19 68/76/19
usemtl m_0
f 22/77/20 21/78/20 17/79/20 18/80/20
f 43/81/21 56/82/21 55/83/21 44/84/21
f 23/85/22 24/86/22 20/87/22 19/88/22
f 48/89/23 51/90/23 50/91/23 33/92/23
f 26/93/24 25/94/24 21/95/24 22/96/24
f 44/97/25 55/98/25 54/99/25 45/100/25
f 27/101/26 28/102/26 24/103/26 23/104/26
f 47/105/27 52/106/27 51/107/27 48/108/27
f 30/109/28 29/110/28 25/111/28 26/112/28
f 45/113/29 54/114/29 53/115/29 46/116/29
f 31/117/30 32/118/30 28/119/30 27/120/30
f 21/121/31 33/122/31 34/123/31 17/124/31
f 17/125/32 34/126/32 35/127/32 13/128/32
f 13/129/33 35/130/33 36/131/33 9/132/33
f 9/133/34 36/134/34 37/135/34 1/136/34
f 3/137/35 74/138/35 73/139/35 38/140/35
f 3/141/36 38/142/36 39/143/36 4/144/36
f 39/145/37 76/146/37 75/147/37 4/148/37
f 2/149/38 40/150/38 41/151/38 10/152/38
f 10/153/39 41/154/39 42/155/39 14/156/39
f 14/157/40 42/158/40 43/159/40 18/160/40
f 18/161/41 43/162/41 44/163/41 22/164/41
f 22/165/42 44/166/42 45/167/42 26/168/42
f 26/169/43 45/170/43 46/171/43 30/172/43
f 30/173/44 46/174/44 47/175/44 29/176/44
f 29/177/45 47/178/45 48/179/45 25/180/45
f 25/181/46 48/182/46 33/183/46 21/184/46
f 19/185/47 49/186/47 50/187/47 23/188/47
f 23/189/48 50/190/48 51/191/48 27/192/48
f 27/193/49 51/194/49 52/195/49 31/196/49
f 31/197/50 52/198/50 53/199/50 32/200/50
f 32/201/51 53/202/51 54/203/51 28/204/51
f 28/205/52 54/206/52 55/207/52 24/208/52
f 24/209/53 55/210/53 56/211/53 20/212/53
f 20/213/54 56/214/54 57/215/54 16/216/54
f 16/217/55 57/218/55 58/219/55 12/220/55
f 12/221/56 58/222/56 59/223/56 6/224/56
f 8/225/57 70/226/57 69/227/57 60/228/57
f 8/229/58 60/230/58 61/231/58 7/232/58
f 61/233/59 72/234/59 71/235/59 7/236/59
f 5/237/60 62/238/60 63/239/60 11/240/60
f 11/241/61 63/242/61 64/243/61 15/244/61
f 15/245/62 64/246/62 49/247/62 19/248/62
usemtl m_1
f 67/249/63 65/250/63 33/251/63 50/252/63
f 66/253/64 67/254/64 50/255/64 49/256/64
f 68/257/65 66/258/65 49/259/65 34/260/65
f 65/261/66 68/262/66 34/263/66 33/264/66
usemtl m_0
f 59/265/67 69/266/67 70/267/67 6/268/67
f 6/269/68 70/270/68 71/271/68 5/272/68
f 5/273/69 71/274/69 72/275/69 62/276/69
f 62/277/70 72/278/70 73/279/70 37/280/70
f 37/281/71 73/282/71 74/283/71 1/284/71
f 1/285/72 74/286/72 75/287/72 2/288/72
f 2/289/73 75/290/73 76/291/73 40/292/73
f 40/293/74 76/294/74 69/295/74 59/296/74
o cube
v 0.04374999999999998 0.4916666666666665 0.030555555555555575
v 0.04374999999999998 0.4916666666666665 0.00625000000000003
v 0.018229166666666664 0.44999999999999984 0.030555555555555575
v 0.018229166666666664 0.44999999999999984 0.00625000000000003
v -0.04374999999999998 0.4916666666666665 0.030555555555555575
v -0.04374999999999998 0.4916666666666665 0.00625000000000003
v -0.018229166666666664 0.44999999999999984 0.030555555555555575
v -0.018229166666666664 0.44999999999999984 0.00625000000000003
v 0.04374999999999998 0.5333333333333332 0.030555555555555575
v 0.04374999999999998 0.5333333333333332 0.00625000000000003
v -0.04374999999999998 0.5333333333333332 0.030555555555555575
v -0.04374999999999998 0.5333333333333332 0.00625000000000003
v 0.018229166666666664 0.5749999999999998 0.030555555555555575
v 0.018229166666666664 0.5749999999999998 0.00625000000000003
v -0.018229166666666664 0.5749999999999998 0.030555555555555575
v -0.018229166666666664 0.5749999999999998 0.00625000000000003
v 0.02552083333333332 0.5249999999999999 0.0500000000000001
v -0.02552083333333332 0.5249999999999999 0.0500000000000001
v -0.02552083333333332 0.4999999999999999 0.0500000000000001
v 0.02552083333333332 0.4999999999999999 0.0500000000000001
v 0.010633680555555552 0.4749999999999998 0.0500000000000001
v -0.010633680555555552 0.4749999999999998 0.0500000000000001
v 0.010633680555555552 0.5499999999999998 0.0500000000000001
v -0.010633680555555552 0.5499999999999998 0.0500000000000001
vt 0.0625 1
vt 0 1
vt 0 0.9375
vt 0.0625 0.9375
vt 0.0625 0.9375
vt 0.0625 1
vt 0 1
vt 0 0.9375
vt 0 0.9375
vt 0.0625 0.9375
vt 0.0625 1
vt 0 1
vt 0.0625 0.9375
vt 0.0625 1
vt 0 1
vt 0 0.9375
vt 0.0625 0.9375
vt 0.0625 1
vt 0 1
vt 0 0.9375
vt 0.0625 1
vt 0 1
vt 0 0.9375
vt 0.0625 0.9375
vt 0.1875 1
vt 0 1
vt 0 0.6875
vt 0.5 0.6875
vt 0.125 1
vt 0.0625 1
vt 0.0625 0.9375
vt 0.125 0.9375
vt 0.1875 1
vt 0 1
vt 0 0.9375
vt 0.1875 0.9375
vt 0.0625 1
vt 0 1
vt 0 0.9375
vt 0.0625 0.9375
vt 0.5 1
vt 0 1
vt 0 0.671875
vt 0.515625 0.671875
vt 0.125 1
vt 0.0625 1
vt 0.0625 0.9375
vt 0.125 0.9375
vt 0.1875 1
vt 0 1
vt 0 0.9375
vt 0.1875 0.9375
vt 0.0625 1
vt 0 1
vt 0 0.9375
vt 0.0625 0.9375
vt 0.0625 0.9375
vt 0.0625 0.86120625
vt 0.125 0.86120625
vt 0.125 0.9375
vt 0.0625 0.86120625
vt 0.0625 0.9375
vt 0 0.9375
vt 0 0.86120625
vt 0.0625 0.9375
vt 0 0.9375
vt 0 0.875
vt 0.0625 0.875
vt 0.0625 0.9375
vt 0.0625 1
vt 0 1
vt 0 0.9375
vt 0.125 1
vt 0.125 0.9375
vt 0.1875 0.9375
vt 0.1875 1
vt 0.0625 0.9375
vt 0.125 0.9375
vt 0.125 1
vt 0.0625 1
vt 0.0625 0.92370625
vt 0.0625 1
vt 0 1
vt 0 0.92370625
vt 0.125 1
vt 0.125 0.92370625
vt 0.1875 0.92370625
vt 0.1875 1
vn 0.8527544148434507 -0.5223120790916137 0
vn -0.8527544148434507 -0.5223120790916137 0
vn 0 1 0
vn 0 -1 0
vn 0 0 1
vn 0 0 -1
vn 0 0 1
vn 1 0 0
vn 0 0 -1
vn -1 0 0
vn 0 0 1
vn 0.8527544148434507 0.5223120790916137 0
vn 0 0 -1
vn -0.8527544148434507 0.5223120790916137 0
vn 0.6095388259224043 -0.3629719050197637 0.7047792674727746
vn -0.6000670685354632 -0.3573316050480262 0.7157049932011493
vn 0 -0.6139406135149226 0.7893522173763247
vn -0.7295372041400866 0 0.6839411288813283
vn 0.7295372041400866 0 0.6839411288813283
vn 0 0.6139406135149218 0.7893522173763253
vn -0.6095388259224019 0.3629719050197647 0.7047792674727761
vn 0.6000670685354632 0.3573316050480286 0.7157049932011482
usemtl m_1
f 78/297/75 77/298/75 79/299/75 80/300/75
f 83/301/76 81/302/76 82/303/76 84/304/76
f 91/305/77 89/306/77 90/307/77 92/308/77
f 80/309/78 79/310/78 83/311/78 84/312/78
f 97/313/79 96/314/79 95/315/79 98/316/79
usemtl none
f 82/317/80 78/318/80 80/319/80 84/320/80
usemtl m_1
f 93/321/81 94/322/81 95/323/81 96/324/81
f 86/325/82 85/326/82 77/327/82 78/328/82
usemtl none
f 88/329/83 86/330/83 78/331/83 82/332/83
usemtl m_1
f 87/333/84 88/334/84 82/335/84 81/336/84
f 99/337/85 100/338/85 94/339/85 93/340/85
f 90/341/86 89/342/86 85/343/86 86/344/86
usemtl none
f 92/345/87 90/346/87 86/347/87 88/348/87
usemtl m_1
f 91/349/88 92/350/88 88/351/88 87/352/88
f 96/353/89 97/354/89 79/355/89 77/356/89
f 98/357/90 95/358/90 81/359/90 83/360/90
f 97/361/91 98/362/91 83/363/91 79/364/91
f 95/365/92 94/366/92 87/367/92 81/368/92
f 93/369/93 96/370/93 77/371/93 85/372/93
f 100/373/94 99/374/94 89/375/94 91/376/94
f 94/377/95 100/378/95 91/379/95 87/380/95
f 99/381/96 93/382/96 85/383/96 89/384/96