# Made in Blockbench 4.2.4
mtllib sunak.mtl

o cube
v 0.3004807692307692 -0.009490740740740689 0.34375
v 0.3004807692307692 -0.009490740740740689 -0.34375
v 0.3004807692307692 -0.043749999999999956 0.34375
v 0.3004807692307692 -0.043749999999999956 -0.34375
v -0.3004807692307692 -0.009490740740740689 0.34375
v -0.3004807692307692 -0.009490740740740689 -0.34375
v -0.3004807692307692 -0.043749999999999956 0.34375
v -0.3004807692307692 -0.043749999999999956 -0.34375
v 0.1502403846153846 0.11041666666666672 0.171875
v 0.1502403846153846 0.11041666666666672 -0.171875
v -0.1502403846153846 0.11041666666666672 0.171875
v -0.1502403846153846 0.11041666666666672 -0.171875
v 0.1502403846153846 0.7099537037037036 0.171875
v 0.1502403846153846 0.7099537037037036 -0.171875
v -0.1502403846153846 0.7099537037037036 0.171875
v -0.1502403846153846 0.7099537037037036 -0.171875
v 0.1502403846153846 0.7956018518518518 0.171875
v 0.1502403846153846 0.7956018518518518 -0.171875
v -0.1502403846153846 0.7956018518518518 0.171875
v -0.1502403846153846 0.7956018518518518 -0.171875
v -0.390625 0.7956018518518518 0.171875
v -0.390625 0.7956018518518518 -0.171875
v -0.2704326923076923 0.7099537037037036 -0.171875
v -0.2704326923076923 0.7099537037037036 0.171875
v -0.2704326923076923 0.7956018518518518 0.309375
v -0.2704326923076923 0.7099537037037036 0.309375
v -0.1502403846153846 0.7099537037037036 0.309375
v -0.1502403846153846 0.7956018518518518 0.309375
v 0.1502403846153846 0.7956018518518518 0.309375
v 0.1502403846153846 0.7099537037037036 0.309375
v -0.1502403846153846 0.7956018518518518 -0.309375
v 0.1502403846153846 0.7956018518518518 -0.309375
v 0.1502403846153846 0.7099537037037036 -0.309375
v -0.1502403846153846 0.7099537037037036 -0.309375
v -0.2704326923076923 0.7099537037037036 -0.309375
v -0.2704326923076923 0.7956018518518518 -0.309375
v 0.390625 0.7956018518518518 -0.171875
v 0.390625 0.7956018518518518 0.171875
v 0.2704326923076923 0.7099537037037036 0.171875
v 0.2704326923076923 0.7099537037037036 -0.171875
v 0.2704326923076923 0.7956018518518518 -0.309375
v 0.2704326923076923 0.7099537037037036 -0.309375
v 0.1502403846153846 0.7099537037037036 -0.309375
v 0.1502403846153846 0.7956018518518518 -0.309375
v 0.2704326923076923 0.7099537037037036 0.309375
v 0.2704326923076923 0.7956018518518518 0.309375
v 0.1502403846153846 0.7956018518518518 0.309375
v 0.1502403846153846 0.7099537037037036 0.309375
v 0.1502403846153846 0.8812499999999999 0.309375
v 0.2704326923076923 0.8812499999999999 0.309375
v 0.390625 0.8812499999999999 0.171875
v 0.1502403846153846 0.8812499999999999 0.171875
v 0.390625 0.8812499999999999 0.171875
v 0.390625 0.8812499999999999 -0.171875
v 0.2704326923076923 0.8812499999999999 -0.171875
v 0.2704326923076923 0.8812499999999999 0.171875
v -0.1502403846153846 0.8812499999999999 0.309375
v 0.1502403846153846 0.8812499999999999 0.309375
v 0.1502403846153846 0.8812499999999999 0.22687500000000008
v -0.1502403846153846 0.8812499999999999 0.22687500000000008
v -0.2704326923076923 0.8812499999999999 0.309375
v -0.1502403846153846 0.8812499999999999 0.309375
v -0.1502403846153846 0.8812499999999999 0.171875
v -0.390625 0.8812499999999999 0.171875
v -0.390625 0.8812499999999999 -0.171875
v -0.390625 0.8812499999999999 0.171875
v -0.2704326923076923 0.8812499999999999 0.171875
v -0.2704326923076923 0.8812499999999999 -0.171875
v -0.1502403846153846 0.8812499999999999 -0.309375
v -0.2704326923076923 0.8812499999999999 -0.309375
v -0.390625 0.8812499999999999 -0.171875
v -0.1502403846153846 0.8812499999999999 -0.171875
v 0.1502403846153846 0.8812499999999999 -0.309375
v -0.1502403846153846 0.8812499999999999 -0.309375
v -0.1502403846153846 0.8812499999999999 -0.22687500000000008
v 0.1502403846153846 0.8812499999999999 -0.22687500000000008
v 0.2704326923076923 0.8812499999999999 -0.309375
v 0.1502403846153846 0.8812499999999999 -0.309375
v 0.1502403846153846 0.8812499999999999 -0.171875
v 0.390625 0.8812499999999999 -0.171875
vt 0.578125 0.875
vt 0.40625 0.875
vt 0.40625 0.859375
vt 0.578125 0.859375
vt 0.578125 0.8125
vt 0.578125 0.828125
vt 0.40625 0.828125
vt 0.40625 0.8125
vt 0.25 0.6875
vt 0.328125 0.6875
vt 0.328125 0.78125
vt 0.25 0.78125
vt 0.15625 0.828125
vt 0.15625 1
vt 0 1
vt 0 0.828125
vt 0.578125 0.84375
vt 0.578125 0.859375
vt 0.421875 0.859375
vt 0.421875 0.84375
vt 0.578125 0.84375
vt 0.421875 0.84375
vt 0.421875 0.828125
vt 0.578125 0.828125
vt 0.3626796875 1
vt 0.2875609375 1
vt 0.25 0.9375
vt 0.400240625 0.9375
vt 0.37890625 0.875
vt 0.29296875 0.875
vt 0.25 0.828125
vt 0.421875 0.828125
vt 0.37890625 0.828125
vt 0.29296875 0.828125
vt 0.25 0.78125
vt 0.421875 0.78125
vt 0.3686890625 0.9375
vt 0.2935703125 0.9375
vt 0.256009375 0.875
vt 0.40625 0.875
vt 0.171875 0.8125
vt 0.09375 0.8125
vt 0.09375 0.625
vt 0.171875 0.625
vt 0.25 1
vt 0.15625 1
vt 0.15625 0.8125
vt 0.25 0.8125
vt 0.25 0.8125
vt 0.171875 0.8125
vt 0.171875 0.625
vt 0.25 0.625
vt 0.09375 0.828125
vt 0 0.828125
vt 0 0.640625
vt 0.09375 0.640625
vt 0.07511875 0.6134265624999999
vt 0 0.6134265624999999
vt 0 0.5862265624999999
vt 0.07511875 0.5862265624999999
vt 0.34375 0.6875
vt 0.25 0.6875
vt 0.25 0.640625
vt 0.34375 0.640625
vt 0.328125 0.6134265624999999
vt 0.25300625 0.6134265624999999
vt 0.25300625 0.5862265624999999
vt 0.328125 0.5862265624999999
vt 0.421875 0.78125
vt 0.328125 0.78125
vt 0.328125 0.734375
vt 0.421875 0.734375
vt 0.1875 0.625
vt 0.1875 0.53125
vt 0.21875 0.53125
vt 0.21875 0.625
vt 0.328125 0.515625
vt 0.328125 0.546875
vt 0.296875 0.546875
vt 0.296875 0.515625
vt 0.21875 0.625
vt 0.21875 0.53125
vt 0.25 0.53125
vt 0.25 0.625
vt 0.046875 0.515625
vt 0.046875 0.484375
vt 0.078125 0.484375
vt 0.078125 0.515625
vt 0.40625 0.515625
vt 0.484375 0.515625
vt 0.484375 0.53125
vt 0.40625 0.53125
vt 0.4332921875 0.628125
vt 0.3581734375 0.628125
vt 0.3581734375 0.59375
vt 0.4332921875 0.59375
vt 0.10625 0.5196765624999999
vt 0.10625 0.49247656249999994
vt 0.140625 0.49247656249999994
vt 0.140625 0.5196765624999999
vt 0.04565625 0.5237265624999999
vt 0.04565625 0.5509265624999999
vt 0 0.5509265624999999
vt 0.019775 0.5237265624999999
vt 0.3581734375 0.628125
vt 0.328125 0.628125
vt 0.328125 0.59375
vt 0.3581734375 0.59375
vt 0.45192343749999997 0.75
vt 0.484375 0.75
vt 0.484375 0.78125
vt 0.421875 0.78125
vt 0.546875 0.5625
vt 0.46875 0.5625
vt 0.46875 0.546875
vt 0.546875 0.546875
vt 0.1875 0.49247656249999994
vt 0.1875 0.5196765624999999
vt 0.153125 0.5196765624999999
vt 0.153125 0.49247656249999994
vt 0.1081734375 0.578125
vt 0.1832921875 0.578125
vt 0.1832921875 0.6125
vt 0.1081734375 0.6125
vt 0.484375 0.78125
vt 0.484375 0.75
vt 0.515625 0.75
vt 0.515625 0.78125
vt 0.3125 0.578125
vt 0.28004843749999997 0.578125
vt 0.25 0.546875
vt 0.3125 0.546875
vt 0.078125 0.578125
vt 0.1081734375 0.578125
vt 0.1081734375 0.6125
vt 0.078125 0.6125
vt 0.4375 0.90625
vt 0.4375 1
vt 0.40625 1
vt 0.40625 0.90625
vt 0.515625 0.71875
vt 0.515625 0.75
vt 0.484375 0.75
vt 0.484375 0.71875
vt 0.359375 0.5
vt 0.359375 0.59375
vt 0.328125 0.59375
vt 0.328125 0.5
vt 0.484375 0.71875
vt 0.484375 0.6875
vt 0.515625 0.6875
vt 0.515625 0.71875
vt 0.09253125000000001 0.5237265624999999
vt 0.09253125000000001 0.5509265624999999
vt 0.046875 0.5509265624999999
vt 0.06665 0.5237265624999999
vt 0.296875 0.484375
vt 0.328125 0.484375
vt 0.328125 0.515625
vt 0.296875 0.515625
vt 0.25 0.5196765624999999
vt 0.25 0.49247656249999994
vt 0.284375 0.49247656249999994
vt 0.284375 0.5196765624999999
vt 0.4675484375 0.65625
vt 0.4375 0.65625
vt 0.4375 0.625
vt 0.497596875 0.625
vt 0.40625 0.515625
vt 0.40625 0.484375
vt 0.4375 0.484375
vt 0.4375 0.515625
vt 0.359375 0.53125
vt 0.3894234375 0.53125
vt 0.419471875 0.5625
vt 0.359375 0.5625
vt 0.221875 0.47685156249999994
vt 0.221875 0.5040515624999999
vt 0.1875 0.5040515624999999
vt 0.1875 0.47685156249999994
vt 0.46875 0.515625
vt 0.4375 0.515625
vt 0.4375 0.484375
vt 0.46875 0.484375
vt 0.515625 0.546875
vt 0.484375 0.546875
vt 0.484375 0.515625
vt 0.515625 0.515625
vt 0.5 0.59375
vt 0.453125 0.59375
vt 0.453125 0.5625
vt 0.5 0.5625
vt 0.484375 0.75
vt 0.421875 0.75
vt 0.421875 0.71875
vt 0.484375 0.71875
vt 0.221875 0.53125
vt 0.1875 0.53125
vt 0.1875 0.5040515624999999
vt 0.221875 0.5040515624999999
vt 0.5 0.90625
vt 0.40625 0.90625
vt 0.40625 0.875
vt 0.5 0.875
vt 0.4699515625 0.625
vt 0.439903125 0.625
vt 0.439903125 0.59375
vt 0.5 0.59375
vt 0.421875 0.734375
vt 0.328125 0.734375
vt 0.328125 0.6875
vt 0.421875 0.6875
vt 0.484375 0.71875
vt 0.4519234375 0.71875
vt 0.421875 0.6875
vt 0.484375 0.6875
vt 0.07511875 0.640625
vt 0 0.640625
vt 0 0.6134265624999999
vt 0.07511875 0.6134265624999999
vt 0.12687500000000002 0.546875
vt 0.10625 0.546875
vt 0.10625 0.5196765624999999
vt 0.140625 0.5196765624999999
vt 0.171875 0.578125
vt 0.09375 0.578125
vt 0.09375 0.546875
vt 0.171875 0.546875
vt 0.5 0.515625
vt 0.4825 0.515625
vt 0.46875 0.484375
vt 0.5 0.484375
vt 0.53125 1
vt 0.5 1
vt 0.5 0.96875
vt 0.53125 0.96875
vt 0.53125 0.96875
vt 0.5 0.96875
vt 0.5 0.9375
vt 0.53125 0.9375
vt 0.5 1
vt 0.4375 1
vt 0.4375 0.96875
vt 0.5 0.96875
vt 0.04565625 0.578125
vt 0 0.578125
vt 0 0.5509265624999999
vt 0.04565625 0.5509265624999999
vt 0.453125 0.59375
vt 0.359375 0.59375
vt 0.359375 0.5625
vt 0.453125 0.5625
vt 0.45192343749999997 0.5625
vt 0.421875 0.5625
vt 0.421875 0.53125
vt 0.481971875 0.53125
vt 0.4375 0.6875
vt 0.34375 0.6875
vt 0.34375 0.640625
vt 0.4375 0.640625
vt 0.5 0.96875
vt 0.4675484375 0.96875
vt 0.4375 0.9375
vt 0.5 0.9375
vt 0.53125 0.9375
vt 0.5 0.9375
vt 0.5 0.90625
vt 0.53125 0.90625
vt 0.40625 0.53125
vt 0.359375 0.53125
vt 0.359375 0.5
vt 0.40625 0.5
vt 0.5 0.9375
vt 0.4375 0.9375
vt 0.4375 0.90625
vt 0.5 0.90625
vt 0.53125 0.90625
vt 0.5 0.90625
vt 0.5 0.875
vt 0.53125 0.875
vt 0.328125 0.640625
vt 0.25300625 0.640625
vt 0.25300625 0.6134265624999999
vt 0.328125 0.6134265624999999
vt 0.020625000000000004 0.515625
vt 0 0.515625
vt 0 0.484375
vt 0.034375 0.484375
vt 0.5 0.8125
vt 0.421875 0.8125
vt 0.421875 0.78125
vt 0.5 0.78125
vt 0.1875 0.546875
vt 0.166875 0.546875
vt 0.153125 0.5196765624999999
vt 0.1875 0.5196765624999999
vt 0.53125 0.8125
vt 0.5 0.8125
vt 0.5 0.78125
vt 0.53125 0.78125
vt 0.284375 0.546875
vt 0.25 0.546875
vt 0.25 0.5196765624999999
vt 0.284375 0.5196765624999999
vt 0.5 0.6875
vt 0.4375 0.6875
vt 0.4375 0.65625
vt 0.5 0.65625
vt 0.09253125000000001 0.578125
vt 0.046875 0.578125
vt 0.046875 0.5509265624999999
vt 0.09253125000000001 0.5509265624999999
vn 1 0 0
vn -1 0 0
vn 0 1 0
vn 0 -1 0
vn 0 0 1
vn 0 0 -1
vn 0 0.8201390082951175 0.572164318244944
vn 0.6237908922021711 0.7815912760552151 0
vn -0.6237908922021711 0.7815912760552151 0
vn 0 0.8201390082951175 -0.572164318244944
vn 0 0 1
vn 1 0 0
vn 0 0 -1
vn -1 0 0
vn 0 0 1
vn 0.5803248034929914 -0.8143851192469206 0
vn 0 0 -1
vn -0.5803248034929914 -0.8143851192469206 0
vn 0 1 0
vn 0 0 -1
vn 0 -1 0
vn 0 0 1
vn 0 1 0
vn 0 -1 0
vn 1 0 0
vn -0.7529027561994522 0 0.658131779894626
vn 0 -1 0
vn 0 1 0
vn 0 1 0
vn 1 0 0
vn 0 -1 0
vn -1 0 0
vn 0 1 0
vn 0 -1 0
vn 0 1 0
vn 0 0 1
vn 0 -1 0
vn 0 0 -1
vn 0.7529027561994522 0 -0.658131779894626
vn 0 -1 0
vn -1 0 0
vn 0 1 0
vn 1 0 0
vn 0 1 0
vn -1 0 0
vn 0 -1 0
vn 0 0 1
vn 0.7529027561994521 0 0.658131779894626
vn 0 0 -1
vn -1 0 0
vn 1 0 0
vn 0 0 -1
vn -0.5803248034929904 0.8143851192469213 0
vn 0 0 1
vn 0 0 1
vn 1 0 0
vn 0 0.5403437411614193 -0.8414443780712315
vn -1 0 0
vn 0 0 1
vn 1 0 0
vn 0 0 -1
vn -0.7529027561994521 0 0.658131779894626
vn -1 0 0
vn 0 0 1
vn 0.5803248034929904 0.8143851192469213 0
vn 0 0 -1
vn 0 0 -1
vn -0.7529027561994521 0 -0.658131779894626
vn 0 0 1
vn 1 0 0
vn 0 0 -1
vn -1 0 0
vn 0 0.5403437411614193 0.8414443780712315
vn 1 0 0
vn 0 0 -1
vn -1 0 0
vn 0 0 1
vn 0.7529027561994521 0 -0.658131779894626
usemtl m_0
f 2/1/1 1/2/1 3/3/1 4/4/1
f 7/5/2 5/6/2 6/7/2 8/8/2
f 19/9/3 17/10/3 18/11/3 20/12/3
f 4/13/4 3/14/4 7/15/4 8/16/4
f 3/17/5 1/18/5 5/19/5 7/20/5
f 6/21/6 2/22/6 4/23/6 8/24/6
f 9/25/7 11/26/7 5/27/7 1/28/7
f 10/29/8 9/30/8 1/31/8 2/32/8
f 11/33/9 12/34/9 6/35/9 5/36/9
f 12/37/10 10/38/10 2/39/10 6/40/10
f 13/41/11 15/42/11 11/43/11 9/44/11
f 14/45/12 13/46/12 9/47/12 10/48/12
f 16/49/13 14/50/13 10/51/13 12/52/13
f 15/53/14 16/54/14 12/55/14 11/56/14
f 29/57/15 28/58/15 27/59/15 30/60/15
f 37/61/16 38/62/16 39/63/16 40/64/16
f 31/65/17 32/66/17 33/67/17 34/68/17
f 21/69/18 22/70/18 23/71/18 24/72/18
f 65/73/19 66/74/19 67/75/19 68/76/19
f 35/77/20 36/78/20 31/79/20 34/80/20
f 24/81/21 23/82/21 16/83/21 15/84/21
f 25/85/22 26/86/22 27/87/22 28/88/22
f 57/89/23 58/90/23 59/91/23 60/92/23
f 30/93/24 27/94/24 15/95/24 13/96/24
f 29/97/25 30/98/25 13/99/25 17/100/25
f 26/101/26 25/102/26 21/103/26 24/104/26
f 27/105/27 26/106/27 24/107/27 15/108/27
f 61/109/28 62/110/28 63/111/28 64/112/28
f 73/113/29 74/114/29 75/115/29 76/116/29
f 33/117/30 32/118/30 18/119/30 14/120/30
f 34/121/31 33/122/31 14/123/31 16/124/31
f 36/125/32 35/126/32 23/127/32 22/128/32
f 69/129/33 70/130/33 71/131/33 72/132/33
f 35/133/34 34/134/34 16/135/34 23/136/34
f 53/137/35 54/138/35 55/139/35 56/140/35
f 45/141/36 46/142/36 47/143/36 48/144/36
f 40/145/37 39/146/37 13/147/37 14/148/37
f 41/149/38 42/150/38 43/151/38 44/152/38
f 42/153/39 41/154/39 37/155/39 40/156/39
f 43/157/40 42/158/40 40/159/40 14/160/40
f 44/161/41 43/162/41 14/163/41 18/164/41
f 77/165/42 78/166/42 79/167/42 80/168/42
f 46/169/43 45/170/43 39/171/43 38/172/43
f 49/173/44 50/174/44 51/175/44 52/176/44
f 48/177/45 47/178/45 17/179/45 13/180/45
f 45/181/46 48/182/46 13/183/46 39/184/46
f 50/185/47 49/186/47 47/187/47 46/188/47
f 51/189/48 50/190/48 46/191/48 38/192/48
f 52/193/49 51/194/49 38/195/49 17/196/49
f 49/197/50 52/198/50 17/199/50 47/200/50
f 54/201/51 53/202/51 38/203/51 37/204/51
f 55/205/52 54/206/52 37/207/52 18/208/52
f 56/209/53 55/210/53 18/211/53 17/212/53
f 53/213/54 56/214/54 17/215/54 38/216/54
f 58/217/55 57/218/55 28/219/55 29/220/55
f 59/221/56 58/222/56 29/223/56 17/224/56
f 60/225/57 59/226/57 17/227/57 19/228/57
f 57/229/58 60/230/58 19/231/58 28/232/58
f 62/233/59 61/234/59 25/235/59 28/236/59
f 63/237/60 62/238/60 28/239/60 19/240/60
f 64/241/61 63/242/61 19/243/61 21/244/61
f 61/245/62 64/246/62 21/247/62 25/248/62
f 66/249/63 65/250/63 22/251/63 21/252/63
f 67/253/64 66/254/64 21/255/64 19/256/64
f 68/257/65 67/258/65 19/259/65 20/260/65
f 65/261/66 68/262/66 20/263/66 22/264/66
f 70/265/67 69/266/67 31/267/67 36/268/67
f 71/269/68 70/270/68 36/271/68 22/272/68
f 72/273/69 71/274/69 22/275/69 20/276/69
f 69/277/70 72/278/70 20/279/70 31/280/70
f 74/281/71 73/282/71 32/283/71 31/284/71
f 75/285/72 74/286/72 31/287/72 20/288/72
f 76/289/73 75/290/73 20/291/73 18/292/73
f 73/293/74 76/294/74 18/295/74 32/296/74
f 78/297/75 77/298/75 41/299/75 44/300/75
f 79/301/76 78/302/76 44/303/76 18/304/76
f 80/305/77 79/306/77 18/307/77 37/308/77
f 77/309/78 80/310/78 37/311/78 41/312/78