# Made in Blockbench 4.2.4
mtllib kutu.mtl

o cube
v 0.34375 0.5625 0.34375
v 0.34375 0.5625 -0.34375
v 0.34375 0 0.34375
v 0.34375 0 -0.34375
v -0.34375 0.5625 0.34375
v -0.34375 0.5625 -0.34375
v -0.34375 0 0.34375
v -0.34375 0 -0.34375
v -0.34375 0.5625 0.281875
v -0.34375 0 0.281875
v 0.34375 0 0.281875
v 0.34375 0.5625 0.281875
v -0.34375 0.06187500000000001 0.281875
v -0.34375 0.06187500000000001 -0.34375
v 0.34375 0.06187500000000001 -0.34375
v 0.34375 0.06187500000000001 0.281875
v 0.34375 0.06187500000000001 0.34375
v -0.34375 0.06187500000000001 0.34375
v -0.40625 0 0.34375
v -0.40625 0.06187500000000001 0.34375
v -0.40625 0.06187500000000001 0.281875
v -0.40625 0 0.281875
v -0.40625 0 -0.405625
v -0.40625 0.06187500000000001 -0.405625
v -0.34375 0.06187500000000001 -0.405625
v -0.34375 0 -0.405625
v -0.40625 0.06187500000000001 0.40625
v -0.40625 0 0.40625
v -0.34375 0 0.40625
v -0.34375 0.06187500000000001 0.40625
v 0.40625 0.06187500000000001 0.40625
v 0.40625 0 0.40625
v 0.40625 0 0.34375
v 0.40625 0.06187500000000001 0.34375
v 0.40625 0 0.281875
v 0.40625 0.06187500000000001 0.281875
v 0.40625 0.06187500000000001 0.34375
v 0.40625 0 0.34375
v 0.40625 0.06187500000000001 -0.405625
v 0.40625 0 -0.405625
v 0.34375 0 -0.405625
v 0.34375 0.06187500000000001 -0.405625
v 0.34375 0 -0.34375
v 0.34375 0.06187500000000001 -0.34375
v 0.40625 0.06187500000000001 -0.34375
v 0.40625 0 -0.34375
v -0.34375 0 -0.405625
v -0.34375 0 -0.34375
v -0.34375 0.06187500000000001 -0.34375
v -0.34375 0.06187500000000001 -0.405625
v 0.34375 0.5618750000000001 -0.405625
v 0.34375 0.5618750000000001 -0.34375
v 0.40625 0.5618750000000001 -0.34375
v 0.40625 0.5618750000000001 -0.405625
v -0.40625 0.5618750000000001 0.40625
v -0.34375 0.5618750000000001 0.40625
v -0.34375 0.5618750000000001 0.34375
v -0.40625 0.5618750000000001 0.34375
v 0.40625 0.06187500000000007 0.34375
v 0.40625 0.06187500000000007 0.281875
v 0.34375 0.06187500000000007 0.281875
v 0.34375 0.06187500000000007 0.34375
v -0.40625 0.06187500000000001 -0.33687500000000004
v -0.34375 0.06187500000000001 -0.33687500000000004
v -0.34375 0 -0.33687500000000004
v -0.40625 0 -0.33687500000000004
v -0.40625 0.5618750000000001 -0.405625
v -0.40625 0.5618750000000001 -0.33687500000000004
v -0.34375 0.5618750000000001 -0.33687500000000004
v -0.34375 0.5618750000000001 -0.405625
v -0.40625 0.6243750000000001 -0.405625
v -0.40625 0.6243750000000001 -0.33687500000000004
v -0.34375 0.6243750000000001 -0.33687500000000004
v -0.34375 0.6243750000000001 -0.405625
v -0.34375 0.6243750000000001 0.406875
v -0.40625 0.6243750000000001 0.406875
v -0.40625 0.5618750000000001 0.406875
v -0.34375 0.5618750000000001 0.406875
v 0.34375 0.6243750000000001 -0.405625
v 0.34375 0.6243750000000001 -0.34375
v 0.40625 0.6243750000000001 -0.34375
v 0.40625 0.6243750000000001 -0.405625
v -0.34375 0.6243750000000001 -0.34375
v -0.34375 0.6243750000000001 -0.405625
v -0.34375 0.5618750000000001 -0.405625
v -0.34375 0.5618750000000001 -0.34375
v 0.40625 0.6243750000000001 0.34375
v 0.34375 0.6243750000000001 0.34375
v 0.34375 0.5618750000000001 0.34375
v 0.40625 0.5618750000000001 0.34375
v 0.345 0.06187500000000001 0.34375
v 0.345 0.06187500000000001 0.40625
v 0.33875 0 0.40625
v 0.33875 0 0.34375
v 0.40625 0.6243750000000001 0.34375
v 0.345 0.6243750000000001 0.34375
v 0.345 0.6243750000000001 0.40625
v 0.40625 0.6243750000000001 0.40625
v 0.345 0.5625 0.34375
v 0.345 0.5625 0.40625
v 0.40625 0.5625 0.40625
v 0.40625 0.5625 0.34375
v -0.3425 0.6243750000000001 0.34375
v -0.3425 0.5625 0.34375
v -0.3425 0.5625 0.40625
v -0.3425 0.6243750000000001 0.40625
v 0.34375 0.0625 -0.34375
v -0.34375 0.0625 0.281875
v 0.34375 0.0625 0.281875
v -0.34375 0.0625 -0.34375
v -0.34375 0.0625 0.34375
v 0.34375 0.0625 0.34375
vt 0.3746875 1
vt 0.3746875 0.7496875000000001
vt 0.6875 0.7496875000000001
vt 0.6875 1
vt 0.34375 0.71875
vt 0.34375 0.46843750000000006
vt 0.6565624999999999 0.46843750000000006
vt 0.6565624999999999 0.71875
vt 0.046875 0.5546875
vt 0.0625 0.35125000000000006
vt 0.28125 0.35906250000000006
vt 0.2421875 0.5078125
vt 0.34375 0.4375
vt 0.34375 0.18718750000000006
vt 0.6875 0.18718750000000006
vt 0.6875 0.4375
vt 0 0.3125
vt 0 0.06218750000000006
vt 0.34375 0.06218750000000006
vt 0.34375 0.3125
vt 0.6565624999999999 0.71875
vt 0.6565624999999999 0.46843750000000006
vt 0.6875 0.46843750000000006
vt 0.6875 0.71875
vt 0 0.6171875
vt 0 0.5862499999999999
vt 0.34375 0.5862499999999999
vt 0.34375 0.6171875
vt 0.34375 1
vt 0.34375 0.7496875000000001
vt 0.3746875 0.7496875000000001
vt 0.3746875 1
vt 0.34375 0.5
vt 0.34375 0.5309375000000001
vt 0 0.5309375000000001
vt 0 0.5
vt 0.3121875 0.7265625
vt 0.3121875 0.7575000000000001
vt 0.28125 0.7575000000000001
vt 0.28125 0.7265625
vt 0.6875 0.4375
vt 0.6875 0.46062500000000006
vt 0.6565624999999999 0.46062500000000006
vt 0.6565624999999999 0.4375
vt 0.2890625 0.765625
vt 0.2890625 0.7346874999999999
vt 0.3203125 0.7346874999999999
vt 0.3203125 0.765625
vt 0.2890625 0.765625
vt 0.2890625 0.7346874999999999
vt 0.3203125 0.7346874999999999
vt 0.3203125 0.765625
vt 0.34375 0.6878124999999999
vt 0.34375 0.71875
vt 0.3125 0.71875
vt 0.3125 0.6878124999999999
vt 0.28125 0.7578125
vt 0.28125 0.7268749999999999
vt 0.3125 0.7268749999999999
vt 0.3125 0.7578125
vt 0.15625 0.84375
vt 0.128125 0.84375
vt 0.128125 0.8128124999999999
vt 0.15625 0.8128124999999999
vt 0.1875 0.875
vt 0.1875 0.903125
vt 0.15625 0.903125
vt 0.15625 0.875
vt 0.15625 0.8128124999999999
vt 0.184375 0.8128124999999999
vt 0.184375 0.84375
vt 0.15625 0.84375
vt 0.15625 0.84375
vt 0.15625 0.815625
vt 0.1875 0.815625
vt 0.1875 0.84375
vt 0.1875 0.8128124999999999
vt 0.1875 0.84375
vt 0.15625 0.84375
vt 0.15625 0.8128124999999999
vt 0.21875 0.84375
vt 0.1875 0.84375
vt 0.1875 0.8125
vt 0.21875 0.8125
vt 0.1875 0.84375
vt 0.1875 0.8128124999999999
vt 0.21875 0.8128124999999999
vt 0.21875 0.84375
vt 0.1875 0.84375
vt 0.21875 0.84375
vt 0.21875 0.875
vt 0.1875 0.875
vt 0.09375 0.8753124999999999
vt 0.1221875 0.8753124999999999
vt 0.1221875 0.90625
vt 0.09375 0.90625
vt 0.09375 0.875
vt 0.1221875 0.875
vt 0.1221875 0.90625
vt 0.09375 0.90625
vt 0.125 0.90625
vt 0.0965625 0.90625
vt 0.0965625 0.8753124999999999
vt 0.125 0.8753124999999999
vt 0.09375 0.90625
vt 0.1221875 0.90625
vt 0.1221875 0.9375
vt 0.09375 0.9375
vt 0.1875 0.84375
vt 0.1875 0.8128124999999999
vt 0.21875 0.8128124999999999
vt 0.21875 0.84375
vt 0.1875 0.8753124999999999
vt 0.1875 0.90625
vt 0.15625 0.90625
vt 0.15625 0.8753124999999999
vt 0.1875 0.8128124999999999
vt 0.1875 0.84375
vt 0.15625 0.84375
vt 0.15625 0.8128124999999999
vt 0.1875 0.8128124999999999
vt 0.1875 0.84375
vt 0.15625 0.84375
vt 0.15625 0.8128124999999999
vt 0.09375 0.8753124999999999
vt 0.1221875 0.8753124999999999
vt 0.1221875 0.90625
vt 0.09375 0.90625
vt 0.09375 0.90625
vt 0.0653125 0.90625
vt 0.0653125 0.8753124999999999
vt 0.09375 0.8753124999999999
vt 0.09375 0.9375
vt 0.09375 0.9659375
vt 0.0625 0.9659375
vt 0.0625 0.9375
vt 0.0625 0.8753124999999999
vt 0.0653125 0.8753124999999999
vt 0.0653125 0.90625
vt 0.0625 0.90625
vt 0.0625 0.96875
vt 0.0625 0.9659375
vt 0.09375 0.9659375
vt 0.09375 0.96875
vt 0.125 0.90625
vt 0.1221875 0.90625
vt 0.1221875 0.8753124999999999
vt 0.125 0.8753124999999999
vt 0.03125 0.96875
vt 0.03125 0.9378124999999999
vt 0.0625 0.9378124999999999
vt 0.0625 0.96875
vt 0.03125 0.9375
vt 0.03125 0.9065624999999999
vt 0.0625 0.9065624999999999
vt 0.0625 0.9375
vt 0.03125 0.9375
vt 0.03125 0.9065624999999999
vt 0.0625 0.9065624999999999
vt 0.0625 0.9375
vt 0.0625 0.9065624999999999
vt 0.0625 0.9375
vt 0.03125 0.9375
vt 0.03125 0.9065624999999999
vt 0.06218750000000001 0.96875
vt 0.03125 0.96875
vt 0.03125 0.9375
vt 0.06218750000000001 0.9375
vt 0.0625 0.96875
vt 0.03125 0.96875
vt 0.03125 0.9375
vt 0.0625 0.9375
vt 0.030937500000000007 0.96875
vt 0 0.96875
vt 0 0.9375
vt 0.030937500000000007 0.9375
vt 0.0625 1
vt 0.03125 1
vt 0.03125 0.96875
vt 0.0625 0.96875
vt 0.125 0.9375
vt 0.09375 0.9375
vt 0.09375 0.90625
vt 0.125 0.90625
vt 0.125 0.9375
vt 0.09375 0.9375
vt 0.09375 0.90625
vt 0.125 0.90625
vt 0.125 0.9375
vt 0.09375 0.9375
vt 0.09375 0.90625
vt 0.125 0.90625
vt 0.09375 0.9375
vt 0.0625 0.9375
vt 0.0625 0.90625
vt 0.09375 0.90625
vt 0.1246875 0.9375
vt 0.09375 0.9375
vt 0.09375 0.90625
vt 0.1246875 0.90625
vt 0.09375 0.96875
vt 0.0625 0.96875
vt 0.0625 0.9375
vt 0.09375 0.9375
vt 0.0934375 0.9375
vt 0.0625 0.9375
vt 0.0625 0.90625
vt 0.0934375 0.90625
vt 0.09375 0.9375
vt 0.0625 0.9375
vt 0.0625 0.90625
vt 0.09375 0.90625
vt 0.15625 0.90625
vt 0.15625 0.903125
vt 0.1875 0.903125
vt 0.1875 0.90625
vt 0.1875 0.84375
vt 0.184375 0.84375
vt 0.184375 0.8128124999999999
vt 0.1875 0.8128124999999999
vt 0.1875 0.8125
vt 0.1875 0.815625
vt 0.15625 0.815625
vt 0.15625 0.8125
vt 0.125 0.8128124999999999
vt 0.128125 0.8128124999999999
vt 0.128125 0.84375
vt 0.125 0.84375
vt 0.09687499999999999 0.9375
vt 0.0625 0.9375
vt 0.0625 0.90625
vt 0.09687499999999999 0.90625
vt 0.09375 0.9375
vt 0.0625 0.9375
vt 0.0625 0.90625
vt 0.09375 0.90625
vt 0.09687499999999999 0.9375
vt 0.0625 0.9375
vt 0.0625 0.90625
vt 0.09687499999999999 0.90625
vt 0.09375 0.96875
vt 0.0625 0.96875
vt 0.0625 0.9375
vt 0.09375 0.9375
vt 0.09687499999999999 0.9375
vt 0.0625 0.9375
vt 0.0625 0.90625
vt 0.09687499999999999 0.90625
vt 0.09375 0.9375
vt 0.0625 0.9375
vt 0.0625 0.90625
vt 0.09375 0.90625
vt 0.09687499999999999 0.9375
vt 0.0625 0.9375
vt 0.0625 0.90625
vt 0.09687499999999999 0.90625
vt 0.09375 0.96875
vt 0.0625 0.96875
vt 0.0625 0.9375
vt 0.09375 0.9375
vt 0.03125 0.9375
vt 0.0625 0.9375
vt 0.0625 0.96875
vt 0.03125 0.96875
vt 0.06250000000000001 0.9375
vt 0.06250000000000001 0.96875
vt 0.03125 0.96875
vt 0.03125 0.9375
vt 0.0625 0.96875
vt 0.03125 0.96875
vt 0.03125 0.9375
vt 0.0625 0.9375
vt 0.03125 0.96875
vt 0.03125 0.9375
vt 0.0625 0.9375
vt 0.0625 0.96875
vt 0.06218750000000001 0.96875
vt 0.03125 0.96875
vt 0.03125 0.9375
vt 0.06218750000000001 0.9375
vt 0.0625 0.96875
vt 0.03125 0.96875
vt 0.03125 0.9375
vt 0.0625 0.9375
vt 0.030937500000000007 0.96875
vt 0 0.96875
vt 0 0.9375
vt 0.030937500000000007 0.9375
vt 0.0625 1
vt 0.03125 1
vt 0.03125 0.96875
vt 0.0625 0.96875
vt 0 0.96875
vt 0 0.9378124999999999
vt 0.03125 0.9378124999999999
vt 0.03125 0.96875
vt 0.03125 0.9375
vt 0.03125 0.96875
vt 0 0.96875
vt 0 0.9375
vt 0 1
vt 0 0.9690624999999999
vt 0.03125 0.9690624999999999
vt 0.03125 1
vt 0 0.96875
vt 0 0.9375
vt 0.03125 0.9375
vt 0.03125 0.96875
vt 0 0.9375
vt 0.03125 0.9375
vt 0.03125 0.96875
vt 0 0.96875
vt 0.0625 0.9375
vt 0.0625 0.96875
vt 0.03125 0.96875
vt 0.03125 0.9375
vt 0.03125 1
vt 0 1
vt 0 0.96875
vt 0.03125 0.96875
vt 0 0.96875
vt 0 0.9375
vt 0.03125 0.9375
vt 0.03125 0.96875
vt 0.125 0.9375
vt 0.1221875 0.9375
vt 0.1221875 0.90625
vt 0.125 0.90625
vt 0.125 0.90625
vt 0.1221875 0.90625
vt 0.1221875 0.8753124999999999
vt 0.125 0.8753124999999999
vt 0.125 0.90625
vt 0.1221875 0.90625
vt 0.1221875 0.875
vt 0.125 0.875
vt 0.09375 0.8753124999999999
vt 0.0965625 0.8753124999999999
vt 0.0965625 0.90625
vt 0.09375 0.90625
vt 0.065 0.9375
vt 0.065 0.9653125
vt 0.03125 0.9653125
vt 0.03125 0.9375
vt 0.0625 0.9375
vt 0.0625 0.9653125
vt 0.03125 0.9653125
vt 0.03125 0.9375
vt 0.09625 0.9375
vt 0.09625 0.9653125
vt 0.0625 0.9653125
vt 0.0625 0.9375
vt 0.09375 0.9375
vt 0.09375 0.9653125
vt 0.0625 0.9653125
vt 0.0625 0.9375
vt 0.03125 0.96875
vt 0.03125 0.9653125
vt 0.0625 0.9653125
vt 0.0625 0.96875
vt 0.0625 0.96875
vt 0.0625 0.9653125
vt 0.09625 0.9653125
vt 0.09625 0.96875
vt 0.0625 0.96875
vt 0.0625 0.9653125
vt 0.09375 0.9653125
vt 0.09375 0.96875
vt 0.03125 0.96875
vt 0.03125 0.9653125
vt 0.065 0.9653125
vt 0.065 0.96875
vt 0.03125 0.9378125
vt 0.03125 0.96875
vt 0 0.96875
vt 0 0.9378125
vt 0.03125 0.96875
vt 0.03125 0.9375
vt 0.0625 0.9375
vt 0.0625 0.96875
vt 0.03125 0.96875
vt 0.03125 0.9378125
vt 0.0625 0.9378125
vt 0.0625 0.96875
vt 0.03125 1
vt 0.03125 0.96875
vt 0.0625 0.96875
vt 0.0625 1
vt 0.0625 0.90625
vt 0.0625 0.8778125
vt 0.09375 0.8778125
vt 0.09375 0.90625
vt 0.09375 0.875
vt 0.09375 0.8778125
vt 0.0625 0.8778125
vt 0.0625 0.875
vt 0.03125 0.6875
vt 0.3440625 0.6875
vt 0.3440625 0.71875
vt 0.03125 0.71875
vt 0 0.6875
vt 0.3128125 0.6875
vt 0.3128125 0.71875
vt 0 0.71875
vt 0 0.78125
vt 0.030937500000000007 0.78125
vt 0.030937500000000007 0.8125
vt 0 0.8125
vt 0.15625 0.78125
vt 0.1871875 0.78125
vt 0.1871875 0.8125
vt 0.15625 0.8125
vt 0 0.78125
vt 0.34375 0.78125
vt 0.34375 0.8125
vt 0 0.8125
vt 0.34375 0.3125
vt 0.34375 0.6253124999999999
vt 0 0.6253124999999999
vt 0 0.3125
vn 1 0 0
vn -1 0 0
vn 0 1 0
vn 0 0 1
vn 0 0 -1
vn -1 0 0
vn 0 -1 0
vn 1 0 0
vn 0 1 0
vn 1 0 0
vn -1 0 0
vn 0 0 1
vn 0 1 0
vn 0 0 -1
vn 0 -1 0
vn -1 0 0
vn 0 1 0
vn 1 0 0
vn 0 -1 0
vn -1 0 0
vn 0 -1 0
vn 1 0 0
vn 0 1 0
vn 0 0 1
vn 0 -1 0
vn 0 0 -1
vn 0 1 0
vn 0 0 -1
vn 0 1 0
vn 0 0 1
vn 0 -1 0
vn 1 0 0
vn -1 0 0
vn 0 1 0
vn -1 0 0
vn 0 1 0
vn 1 0 0
vn 0 -1 0
vn 0 0 1
vn 0 1 0
vn 0 0 -1
vn -1 0 0
vn 0 0 1
vn 1 0 0
vn 0 0 -1
vn 0 0 1
vn 1 0 0
vn 0 0 -1
vn -1 0 0
vn 1 0 0
vn 0 0 -1
vn -1 0 0
vn 0 0 1
vn 0 1 0
vn 1 0 0
vn 0 -1 0
vn -1 0 0
vn -1 0 0
vn 0 0 1
vn 1 0 0
vn 0 0 -1
vn -1 0 0
vn 0 0 1
vn 1 0 0
vn 0 0 -1
vn 0 1 0
vn -1 0 0
vn 0 -1 0
vn 1 0 0
vn -1 0 0
vn 0 0 1
vn 1 0 0
vn 0 0 -1
vn 0 1 0
vn 0 0 -1
vn 0 -1 0
vn 0 0 1
vn 0 1 0
vn -1 0 0
vn 0 -1 0
vn 1 0 0
vn 0 1 0
vn 0 0 1
vn 0 -1 0
vn 0 0 -1
vn 0 0 -1
vn -1 0 0
vn 0 0 1
vn 1 0 0
vn -1 0 0
vn 0 0 1
vn 1 0 0
vn 0 0 -1
vn 0 0 -1
vn 0 -1 0
vn 0 0 1
vn 0 1 0
vn 0 -1 0
vn 0 -1 0
vn -1 0 0
vn 1 0 0
vn 1 0 0
vn -1 0 0
vn 0 0 -1
vn 0 -1 0
usemtl m_0
f 12/1/1 16/2/1 15/3/1 2/4/1
f 6/5/2 14/6/2 13/7/2 9/8/2
f 6/9/3 9/10/3 12/11/3 2/12/3
f 5/13/4 18/14/4 17/15/4 1/16/4
f 2/17/5 15/18/5 14/19/5 6/20/5
f 9/21/6 13/22/6 18/23/6 5/24/6
f 111/25/7 108/26/7 109/27/7 112/28/7
f 1/29/8 17/30/8 16/31/8 12/32/8
f 1/33/9 12/34/9 9/35/9 5/36/9
f 35/37/10 36/38/10 37/39/10 38/40/10
f 19/41/11 20/42/11 21/43/11 22/44/11
f 27/45/12 28/46/12 29/47/12 30/48/12
f 21/49/13 20/50/13 18/51/13 13/52/13
f 23/53/14 24/54/14 25/55/14 26/56/14
f 19/57/15 22/58/15 10/59/15 7/60/15
f 21/61/16 63/62/16 66/63/16 22/64/16
f 13/65/17 64/66/17 63/67/17 21/68/17
f 10/69/18 65/70/18 64/71/18 13/72/18
f 22/73/19 66/74/19 65/75/19 10/76/19
f 28/77/20 27/78/20 20/79/20 19/80/20
f 29/81/21 28/82/21 19/83/21 7/84/21
f 31/85/22 32/86/22 33/87/22 34/88/22
f 55/89/23 56/90/23 57/91/23 58/92/23
f 29/93/24 93/94/24 92/95/24 30/96/24
f 7/97/25 94/98/25 93/99/25 29/100/25
f 18/101/26 91/102/26 94/103/26 7/104/26
f 30/105/27 92/106/27 91/107/27 18/108/27
f 39/109/28 40/110/28 41/111/28 42/112/28
f 59/113/29 60/114/29 61/115/29 62/116/29
f 38/117/30 37/118/30 17/119/30 3/120/30
f 35/121/31 38/122/31 3/123/31 11/124/31
f 35/125/32 46/126/32 45/127/32 36/128/32
f 16/129/33 44/130/33 43/131/33 11/132/33
f 36/133/34 45/134/34 44/135/34 16/136/34
f 47/137/35 48/138/35 49/139/35 50/140/35
f 79/141/36 80/142/36 81/143/36 82/144/36
f 39/145/37 45/146/37 46/147/37 40/148/37
f 48/149/38 47/150/38 41/151/38 43/152/38
f 49/153/39 48/154/39 43/155/39 44/156/39
f 50/157/40 49/158/40 44/159/40 42/160/40
f 47/161/41 50/162/41 42/163/41 41/164/41
f 52/165/42 51/166/42 42/167/42 44/168/42
f 53/169/43 52/170/43 44/171/43 45/172/43
f 54/173/44 53/174/44 45/175/44 39/176/44
f 51/177/45 54/178/45 39/179/45 42/180/45
f 56/181/46 55/182/46 27/183/46 30/184/46
f 57/185/47 56/186/47 30/187/47 18/188/47
f 58/189/48 57/190/48 18/191/48 20/192/48
f 55/193/49 58/194/49 20/195/49 27/196/49
f 60/197/50 59/198/50 37/199/50 36/200/50
f 61/201/51 60/202/51 36/203/51 16/204/51
f 62/205/52 61/206/52 16/207/52 17/208/52
f 59/209/53 62/210/53 17/211/53 37/212/53
f 71/213/54 72/214/54 73/215/54 74/216/54
f 25/217/55 64/218/55 65/219/55 26/220/55
f 26/221/56 65/222/56 66/223/56 23/224/56
f 23/225/57 66/226/57 63/227/57 24/228/57
f 68/229/58 67/230/58 24/231/58 63/232/58
f 69/233/59 68/234/59 63/235/59 64/236/59
f 70/237/60 69/238/60 64/239/60 25/240/60
f 67/241/61 70/242/61 25/243/61 24/244/61
f 72/245/62 71/246/62 67/247/62 68/248/62
f 75/249/63 76/250/63 77/251/63 78/252/63
f 74/253/64 73/254/64 69/255/64 70/256/64
f 71/257/65 74/258/65 70/259/65 67/260/65
f 76/261/66 75/262/66 73/263/66 72/264/66
f 77/265/67 76/266/67 72/267/67 68/268/67
f 78/269/68 77/270/68 68/271/68 69/272/68
f 75/273/69 78/274/69 69/275/69 73/276/69
f 83/277/70 84/278/70 85/279/70 86/280/70
f 87/281/71 88/282/71 89/283/71 90/284/71
f 82/285/72 81/286/72 53/287/72 54/288/72
f 79/289/73 82/290/73 54/291/73 51/292/73
f 84/293/74 83/294/74 80/295/74 79/296/74
f 85/297/75 84/298/75 79/299/75 51/300/75
f 86/301/76 85/302/76 51/303/76 52/304/76
f 83/305/77 86/306/77 52/307/77 80/308/77
f 88/309/78 87/310/78 81/311/78 80/312/78
f 89/313/79 88/314/79 80/315/79 52/316/79
f 90/317/80 89/318/80 52/319/80 53/320/80
f 87/321/81 90/322/81 53/323/81 81/324/81
f 95/325/82 96/326/82 97/327/82 98/328/82
f 31/329/83 92/330/83 93/331/83 32/332/83
f 32/333/84 93/334/84 94/335/84 33/336/84
f 33/337/85 94/338/85 91/339/85 34/340/85
f 91/341/86 99/342/86 102/343/86 34/344/86
f 92/345/87 100/346/87 99/347/87 91/348/87
f 31/349/88 101/350/88 100/351/88 92/352/88
f 34/353/89 102/354/89 101/355/89 31/356/89
f 103/357/90 104/358/90 105/359/90 106/360/90
f 97/361/91 100/362/91 101/363/91 98/364/91
f 98/365/92 101/366/92 102/367/92 95/368/92
f 95/369/93 102/370/93 99/371/93 96/372/93
f 104/373/94 103/374/94 96/375/94 99/376/94
f 105/377/95 104/378/95 99/379/95 100/380/95
f 106/381/96 105/382/96 100/383/96 97/384/96
f 103/385/97 106/386/97 97/387/97 96/388/97
f 11/389/98 43/390/98 46/391/98 35/392/98
f 40/393/99 46/394/99 43/395/99 41/396/99
f 109/397/100 107/398/100 4/399/100 11/400/100
f 110/401/101 108/402/101 10/403/101 8/404/101
f 108/405/102 111/406/102 7/407/102 10/408/102
f 112/409/103 109/410/103 11/411/103 3/412/103
f 111/413/104 112/414/104 3/415/104 7/416/104
f 107/417/105 109/418/105 108/419/105 110/420/105