# Made in Blockbench 4.2.4
mtllib kapı.mtl

o cube
v 0.31250000000000006 1.1312500000000005 0.01874999999999999
v 0.31250000000000006 1.1312500000000005 -0.14375
v 0.31250000000000006 0.006250000000000089 0.01874999999999999
v 0.31250000000000006 0.006250000000000089 -0.14375
v -0.31250000000000006 1.1312500000000005 0.01874999999999999
v -0.31250000000000006 1.1312500000000005 -0.14375
v -0.31250000000000006 0.006250000000000089 0.01874999999999999
v -0.31250000000000006 0.006250000000000089 -0.14375
vt 0.015625 0.71875
vt 0 0.71875
vt 0 0.4375
vt 0.015625 0.4375
vt 0.27734375 0.35546875
vt 0.27734375 0.63671875
vt 0.26171875 0.63671875
vt 0.26171875 0.35546875
vt 0.03125 0.703125
vt 0.1875 0.703125
vt 0.1875 0.71875
vt 0.03125 0.71875
vt 0.34375 0.703125
vt 0.34375 0.71875
vt 0.1875 0.71875
vt 0.1875 0.703125
vt 0.484375 0.125
vt 0.48046875 0.99609375
vt 0 1
vt 0 0.125
vt 0.3125 1
vt 0.15625 1
vt 0.15625 0.71875
vt 0.3125 0.71875
vn 1 0 0
vn -1 0 0
vn 0 1 0
vn 0 -1 0
vn 0 0 1
vn 0 0 -1
usemtl m_0
f 2/1/1 1/2/1 3/3/1 4/4/1
f 7/5/2 5/6/2 6/7/2 8/8/2
f 5/9/3 1/10/3 2/11/3 6/12/3
f 4/13/4 3/14/4 7/15/4 8/16/4
usemtl m_1
f 3/17/5 1/18/5 5/19/5 7/20/5
usemtl m_0
f 6/21/6 2/22/6 4/23/6 8/24/6