# Made in Blockbench 4.2.4
mtllib kolu.mtl

o cube
v 0.010088315217391296 0.6403298350824591 0.09375000000000006
v 0.010088315217391296 0.6403298350824591 -2.498001805406602e-16
v 0.010088315217391296 0.6221701649175413 0.09375000000000006
v 0.010088315217391296 0.6221701649175413 -2.498001805406602e-16
v -0.010088315217391296 0.6403298350824591 0.09375000000000006
v -0.010088315217391296 0.6403298350824591 -2.498001805406602e-16
v -0.010088315217391296 0.6221701649175413 0.09375000000000006
v -0.010088315217391296 0.6221701649175413 -2.498001805406602e-16
v 0.010088315217391296 0.6403298350824591 0.14375000000000032
v -0.010088315217391296 0.6403298350824591 0.14375000000000032
v 0.010088315217391296 0.6221701649175413 0.14375000000000032
v -0.010088315217391296 0.6221701649175413 0.14375000000000032
v -0.07734374999999995 0.6221701649175413 0.14375000000000032
v -0.07734374999999995 0.6403298350824591 0.14375000000000032
v -0.07734374999999995 0.6403298350824591 0.09375000000000006
v -0.07734374999999995 0.6221701649175413 0.09375000000000006
v 0.07734374999999995 0.6403298350824591 0.14375000000000032
v 0.07734374999999995 0.6221701649175413 0.14375000000000032
v 0.07734374999999995 0.6221701649175413 0.09375000000000006
v 0.07734374999999995 0.6403298350824591 0.09375000000000006
v -0.04304347826086953 0.6403298350824591 0.14375000000000032
v -0.04304347826086953 0.6403298350824591 0.09375000000000006
v -0.04304347826086953 0.6221701649175413 0.09375000000000006
v -0.04304347826086953 0.6221701649175413 0.14375000000000032
v 0.04304347826086953 0.6403298350824591 0.09375000000000006
v 0.04304347826086953 0.6403298350824591 0.14375000000000032
v 0.04304347826086953 0.6221701649175413 0.14375000000000032
v 0.04304347826086953 0.6221701649175413 0.09375000000000006
v 0.07734374999999995 0.6705959520239883 0.09375000000000006
v 0.04304347826086953 0.6705959520239883 0.09375000000000006
v 0.04304347826086953 0.6705959520239883 0.14375000000000032
v 0.07734374999999995 0.6705959520239883 0.14375000000000032
v 0.07734374999999995 0.5919040479760121 0.14375000000000032
v 0.04304347826086953 0.5919040479760121 0.14375000000000032
v 0.04304347826086953 0.5919040479760121 0.09375000000000006
v 0.07734374999999995 0.5919040479760121 0.09375000000000006
v 0.043716032608695624 0.561637931034483 0.14375000000000032
v -0.0006725543478260938 0.561637931034483 0.14375000000000032
v -0.0006725543478260938 0.561637931034483 0.09375000000000006
v 0.043716032608695624 0.561637931034483 0.09375000000000006
v -0.07734374999999995 0.5919040479760121 0.09375000000000006
v -0.04304347826086953 0.5919040479760121 0.09375000000000006
v -0.04304347826086953 0.5919040479760121 0.14375000000000032
v -0.07734374999999995 0.5919040479760121 0.14375000000000032
v -0.043716032608695624 0.561637931034483 0.09375000000000006
v 0.0006725543478260945 0.561637931034483 0.09375000000000006
v 0.0006725543478260945 0.561637931034483 0.14375000000000032
v -0.043716032608695624 0.561637931034483 0.14375000000000032
v -0.07734374999999995 0.6705959520239883 0.14375000000000032
v -0.04304347826086953 0.6705959520239883 0.14375000000000032
v -0.04304347826086953 0.6705959520239883 0.09375000000000006
v -0.07734374999999995 0.6705959520239883 0.09375000000000006
v -0.043716032608695624 0.7008620689655174 0.14375000000000032
v 0.0006725543478260945 0.7008620689655174 0.14375000000000032
v 0.0006725543478260945 0.7008620689655174 0.09375000000000006
v -0.043716032608695624 0.7008620689655174 0.09375000000000006
v 0.043716032608695624 0.7008620689655174 0.09375000000000006
v -0.0006725543478260945 0.7008620689655174 0.09375000000000006
v -0.0006725543478260945 0.7008620689655174 0.14375000000000032
v 0.043716032608695624 0.7008620689655174 0.14375000000000032
v -0.05520544439212303 0.733045249064737 0.14375000000000032
v 0.0006725543478260945 0.7375000000000002 0.14375000000000032
v 0.0006725543478260945 0.7375000000000002 0.09375000000000006
v -0.05520544439212303 0.733045249064737 0.09375000000000006
v 0.05520544439212303 0.733045249064737 0.09375000000000006
v -0.0006725543478260945 0.7375000000000002 0.09375000000000006
v -0.0006725543478260945 0.7375000000000002 0.14375000000000032
v 0.05520544439212303 0.733045249064737 0.14375000000000032
v -0.10641128678342734 0.6844601666059664 0.09375000000000006
v -0.10641128678342734 0.6844601666059664 0.14375000000000032
v 0.10641128678342734 0.6844601666059664 0.14375000000000032
v 0.10641128678342734 0.6844601666059664 0.09375000000000006
v 0.11249999999999993 0.6403298350824591 0.14375000000000032
v 0.11249999999999993 0.6403298350824591 0.09375000000000006
v 0.11249999999999993 0.6221701649175413 0.14375000000000032
v 0.11249999999999993 0.6221701649175413 0.09375000000000006
v 0.10641128678342734 0.578039833394034 0.14375000000000032
v 0.10641128678342734 0.578039833394034 0.09375000000000006
v 0.05520544439212303 0.5294547509352634 0.14375000000000032
v 0.05520544439212303 0.5294547509352634 0.09375000000000006
v -0.0006725543478260938 0.5250000000000002 0.14375000000000032
v -0.0006725543478260938 0.5250000000000002 0.09375000000000006
v -0.05520544439212303 0.5294547509352634 0.09375000000000006
v 0.0006725543478260945 0.5250000000000002 0.09375000000000006
v 0.0006725543478260945 0.5250000000000002 0.14375000000000032
v -0.05520544439212303 0.5294547509352634 0.14375000000000032
v -0.10641128678342734 0.578039833394034 0.14375000000000032
v -0.10641128678342734 0.578039833394034 0.09375000000000006
v -0.11249999999999993 0.6221701649175413 0.14375000000000032
v -0.11249999999999993 0.6221701649175413 0.09375000000000006
v -0.11249999999999993 0.6403298350824591 0.14375000000000032
v -0.11249999999999993 0.6403298350824591 0.09375000000000006
vt 0.125 1
vt 0 1
vt 0 0.9375
vt 0.125 0.9375
vt 0.125 0.875
vt 0.125 0.9375
vt 0 0.9375
vt 0 0.875
vt 0 0.75
vt 0.0625 0.75
vt 0.0625 0.875
vt 0 0.875
vt 0.1875 0.875
vt 0.1875 1
vt 0.125 1
vt 0.125 0.875
vt 0.375 0.8125
vt 0.375 0.875
vt 0.3125 0.875
vt 0.3125 0.8125
vt 0.25 0.6875
vt 0.1875 0.6875
vt 0.1875 0.625
vt 0.25 0.625
vt 0.3125 0.8125
vt 0.3125 0.75
vt 0.375 0.75
vt 0.375 0.8125
vt 0.25 0.625
vt 0.3125 0.625
vt 0.3125 0.6875
vt 0.25 0.6875
vt 0.375 0.625
vt 0.375 0.6875
vt 0.3125 0.6875
vt 0.3125 0.625
vt 0.0625 0.625
vt 0 0.625
vt 0 0.5625
vt 0.0625 0.5625
vt 0.4375 1
vt 0.375 1
vt 0.375 0.9375
vt 0.4375 0.9375
vt 0.125 0.625
vt 0.0625 0.625
vt 0.0625 0.5625
vt 0.125 0.5625
vt 0.375 0.875
vt 0.4375 0.875
vt 0.4375 0.9375
vt 0.375 0.9375
vt 0.4375 0.875
vt 0.375 0.875
vt 0.375 0.8125
vt 0.4375 0.8125
vt 0.1875 0.5625
vt 0.25 0.5625
vt 0.25 0.625
vt 0.1875 0.625
vt 0.375 0.75
vt 0.4375 0.75
vt 0.4375 0.8125
vt 0.375 0.8125
vt 0.3125 0.625
vt 0.25 0.625
vt 0.25 0.5625
vt 0.3125 0.5625
vt 0.375 0.6875
vt 0.4375 0.6875
vt 0.4375 0.75
vt 0.375 0.75
vt 0.375 0.4375
vt 0.375 0.5
vt 0.3125 0.5
vt 0.3125 0.4375
vt 0.375 0.625
vt 0.3125 0.625
vt 0.3125 0.5625
vt 0.375 0.5625
vt 0.5 0.6875
vt 0.5 0.625
vt 0.5625 0.625
vt 0.5625 0.6875
vt 0.375 0.625
vt 0.4375 0.625
vt 0.4375 0.6875
vt 0.375 0.6875
vt 0.4375 0.4375
vt 0.4375 0.5
vt 0.375 0.5
vt 0.375 0.4375
vt 0.4375 0.625
vt 0.375 0.625
vt 0.375 0.5625
vt 0.4375 0.5625
vt 0.5 0.625
vt 0.5 0.5625
vt 0.5625 0.5625
vt 0.5625 0.625
vt 0 0.5
vt 0.0625 0.5
vt 0.0625 0.5625
vt 0 0.5625
vt 0.5 1
vt 0.4375 1
vt 0.4375 0.9375
vt 0.5 0.9375
vt 0.125 0.5625
vt 0.0625 0.5625
vt 0.0625 0.5
vt 0.125 0.5
vt 0.5 0.9375
vt 0.4375 0.9375
vt 0.4375 0.875
vt 0.5 0.875
vt 0.5 0.5
vt 0.4375 0.5
vt 0.4375 0.4375
vt 0.5 0.4375
vt 0.125 0.5
vt 0.1875 0.5
vt 0.1875 0.5625
vt 0.125 0.5625
vt 0.4375 0.8125
vt 0.5 0.8125
vt 0.5 0.875
vt 0.4375 0.875
vt 0.1875 0.5
vt 0.25 0.5
vt 0.25 0.5625
vt 0.1875 0.5625
vt 0.5 0.5
vt 0.5625 0.5
vt 0.5625 0.5625
vt 0.5 0.5625
vt 0.0625 0.8125
vt 0.10689375000000001 0.8125
vt 0.14051875 0.875
vt 0.10621875 0.875
vt 0.5625 0.8125
vt 0.625 0.8125
vt 0.625 0.875
vt 0.5625 0.875
vt 0.26810625 0.9375
vt 0.3125 0.9375
vt 0.26878124999999997 1
vt 0.23448125 1
vt 0.5625 0.9375
vt 0.625 0.9375
vt 0.625 1
vt 0.5625 1
vt 0.4375 0.75
vt 0.5 0.75
vt 0.5 0.8125
vt 0.4375 0.8125
vt 0.25 0.5
vt 0.3125 0.5
vt 0.3125 0.5625
vt 0.25 0.5625
vt 0.4375 0.6875
vt 0.5 0.6875
vt 0.5 0.75
vt 0.4375 0.75
vt 0.5 0.4375
vt 0.5625 0.4375
vt 0.5625 0.5
vt 0.5 0.5
vt 0.10948125 0.75
vt 0.153875 0.75
vt 0.1875 0.8125
vt 0.1532 0.8125
vt 0.1875 0.375
vt 0.25 0.375
vt 0.25 0.4375
vt 0.1875 0.4375
vt 0.22112500000000002 0.875
vt 0.26551875 0.875
vt 0.2218 0.9375
vt 0.1875 0.9375
vt 0.0625 0.375
vt 0.125 0.375
vt 0.125 0.4375
vt 0.0625 0.4375
vt 0.375 0.5625
vt 0.3125 0.5625
vt 0.3125 0.5
vt 0.375 0.5
vt 0.5 0.6875
vt 0.4375 0.6875
vt 0.4375 0.625
vt 0.5 0.625
vt 0.4375 0.5625
vt 0.375 0.5625
vt 0.375 0.5
vt 0.4375 0.5
vt 0.0625 0.4375
vt 0 0.4375
vt 0 0.375
vt 0.0625 0.375
vt 0.26551875 0.875
vt 0.22112500000000002 0.875
vt 0.1875 0.8125
vt 0.2218 0.8125
vt 0.625 0.8125
vt 0.5625 0.8125
vt 0.5625 0.75
vt 0.625 0.75
vt 0.278875 0.8125
vt 0.23448125 0.8125
vt 0.2782 0.75
vt 0.3125 0.75
vt 0.625 0.9375
vt 0.5625 0.9375
vt 0.5625 0.875
vt 0.625 0.875
vt 0.125 0.75
vt 0.08060625 0.75
vt 0.04698125 0.6875
vt 0.08128125 0.6875
vt 0.3125 0.4375
vt 0.25 0.4375
vt 0.25 0.375
vt 0.3125 0.375
vt 0.16939375 0.75
vt 0.125 0.75
vt 0.16871875 0.6875
vt 0.20301875 0.6875
vt 0.1875 0.4375
vt 0.125 0.4375
vt 0.125 0.375
vt 0.1875 0.375
vt 0.5 0.5625
vt 0.5 0.625
vt 0.4375 0.625
vt 0.4375 0.5625
vt 0.4375 0.5625
vt 0.4375 0.5
vt 0.5 0.5
vt 0.5 0.5625
vt 0 0.5
vt 0 0.4375
vt 0.0625 0.4375
vt 0.0625 0.5
vt 0.5625 0.9375
vt 0.5625 1
vt 0.5 1
vt 0.5 0.9375
vt 0.125 0.5
vt 0.0625 0.49554374999999995
vt 0.0739875 0.4375
vt 0.125 0.4375
vt 0.5625 0.9375
vt 0.5 0.9375
vt 0.5 0.875
vt 0.5625 0.875
vt 0.625 0.74554375
vt 0.56911875 0.75
vt 0.56911875 0.6875
vt 0.6135125 0.6875
vt 0.13161875 0.3383625
vt 0.1875 0.34281874999999995
vt 0.17601250000000002 0.375
vt 0.13161875 0.375
vt 0.125 0.4375
vt 0.1875 0.4375
vt 0.1875 0.5
vt 0.125 0.5
vt 0.5625 0.59281875
vt 0.625 0.5883625
vt 0.625 0.625
vt 0.5739875 0.625
vt 0.5625 0.875
vt 0.5 0.87054375
vt 0.5114875 0.8125
vt 0.5625 0.8125
vt 0.25 0.5
vt 0.1875 0.5
vt 0.1875 0.4375
vt 0.25 0.4375
vt 0.36838125 0.43304374999999995
vt 0.3125 0.4375
vt 0.3125 0.375
vt 0.35689375 0.375
vt 0.625 0.8383625
vt 0.68088125 0.84281875
vt 0.66939375 0.875
vt 0.625 0.875
vt 0.5 0.75
vt 0.5625 0.75
vt 0.5625 0.8125
vt 0.5 0.8125
vt 0.4375 0.40531874999999995
vt 0.5 0.4008625
vt 0.5 0.4375
vt 0.4489875 0.4375
vt 0.59765625 0.4375
vt 0.59156875 0.5
vt 0.5625 0.48613125
vt 0.5625 0.4375
vt 0.2560875 0.5
vt 0.25 0.4375
vt 0.3125 0.4375
vt 0.3125 0.48613125
vt 0.5625 0.6875
vt 0.5685875 0.6433687499999999
vt 0.625 0.6572374999999999
vt 0.625 0.6875
vt 0.21656874999999998 0.33086874999999993
vt 0.22265625 0.375
vt 0.1875 0.375
vt 0.1875 0.3447374999999999
vt 0.03124741617338439 0.375
vt 0.03124741617338439 0.30441517237660065
vt 0.0625 0.31823079802196563
vt 0.061315675345861576 0.36345728613099415
vt 0.25 0.6875
vt 0.32058482762339935 0.6875
vt 0.30904211375439344 0.7488156753458617
vt 0.263815625645365 0.75
vt 0.375 0.4375
vt 0.3810875 0.39336874999999993
vt 0.4375 0.4072374999999999
vt 0.4375 0.4375
vt 0.6814125 0.7683687499999999
vt 0.6875 0.8125
vt 0.65234375 0.8125
vt 0.65234375 0.7822374999999999
vt 0.625 1
vt 0.625 0.9294151723766007
vt 0.6562525838266156 0.9432307980219656
vt 0.6550682591724772 0.9884572861309942
vt 0.05441517237660065 0.625
vt 0.125 0.625
vt 0.1134572861309941 0.6863156753458617
vt 0.06823079802196563 0.6875
vt 0.125 0.3125
vt 0.11891249999999999 0.375
vt 0.08984375 0.36113125
vt 0.08984375 0.3125
vt 0.5060875 0.75
vt 0.5 0.6875
vt 0.5625 0.6875
vt 0.5625 0.73613125
vt 0.375 0.9294151723766007
vt 0.375 1
vt 0.3125 0.9861843743546351
vt 0.3136843246541383 0.9409578862456065
vt 0.6330848276233993 0.5625
vt 0.5625 0.5625
vt 0.5740427138690058 0.5324317408275228
vt 0.6192692019780345 0.5312474161733843
vt 0.1875 0.6169151723766007
vt 0.1875 0.6875
vt 0.125 0.6736843743546351
vt 0.1261843246541383 0.6284578862456065
vt 0.625 0.4375
vt 0.5544151723766007 0.4375
vt 0.5659578862456065 0.40743174082752276
vt 0.6111843743546351 0.40624741617338433
vn 1 0 0
vn -1 0 0
vn 0 1 0
vn 0 -1 0
vn 0 0 1
vn 0 0 -1
vn 1 0 0
vn 0 1 0
vn -1 0 0
vn 0 -1 0
vn 0 0 1
vn 0 1 0
vn 0 0 -1
vn 0 -1 0
vn 0 0 1
vn 0 -1 0
vn 0 0 -1
vn 0 1 0
vn -0.07947066060475284 0.9968372054167342 0
vn 0 0 -1
vn -0.07947066060475284 -0.9968372054167342 0
vn 0 0 1
vn 0.07947066060475284 0.9968372054167342 0
vn 0 0 1
vn 0.07947066060475284 -0.9968372054167342 0
vn 0 0 -1
vn 0 0 -1
vn -1 0 0
vn 0 0 1
vn 0.9906157476557507 0.13667640797313316 0
vn 0 0 1
vn -1 0 0
vn 0 0 -1
vn 0.9906157476557507 -0.13667640797313316 0
vn 0 0 1
vn -0.569224870223488 0.822181882018239 0
vn 0 0 -1
vn 0.6882990582379322 -0.7254270510732114 0
vn 0 0 -1
vn 1 0 0
vn 0 0 1
vn -0.9906157476557507 -0.13667640797313316 0
vn 0 0 -1
vn 0.569224870223488 0.822181882018239 0
vn 0 0 1
vn -0.6882990582379322 -0.7254270510732114 0
vn 0 0 1
vn 1 0 0
vn 0 0 -1
vn -0.9906157476557507 0.13667640797313316 0
vn 0 0 1
vn 0.569224870223488 -0.822181882018239 0
vn 0 0 -1
vn -0.6882990582379322 0.7254270510732114 0
vn 0 0 -1
vn -0.569224870223488 -0.822181882018239 0
vn 0 0 1
vn 0.6882990582379322 0.7254270510732114 0
vn 0 0 1
vn 0 0 -1
vn 0 0 1
vn 0 0 -1
vn 0 0 1
vn 1 0 0
vn 0 0 -1
vn 0 0 -1
vn 1 0 0
vn 0 0 1
vn 0 0 -1
vn -1 0 0
vn 0 0 1
vn 0 0 1
vn -1 0 0
vn 0 0 -1
vn 0 0 1
vn 0 0 -1
vn 0 0 -1
vn 0 0 1
vn 0 0 -1
vn 0 0 1
vn 0 0 1
vn 0 0 -1
vn 0 0 1
vn 0 0 -1
vn 0 0 -1
vn 0 0 1
vn 0 0 -1
vn 0 0 1
vn 0 0 1
vn 0 0 -1
usemtl m_1
f 2/1/1 1/2/1 3/3/1 4/4/1
f 7/5/2 5/6/2 6/7/2 8/8/2
f 5/9/3 1/10/3 2/11/3 6/12/3
f 4/13/4 3/14/4 7/15/4 8/16/4
f 11/17/5 9/18/5 10/19/5 12/20/5
f 6/21/6 2/22/6 4/23/6 8/24/6
f 73/25/7 75/26/7 76/27/7 74/28/7
f 10/29/8 9/30/8 1/31/8 5/32/8
f 89/33/9 91/34/9 92/35/9 90/36/9
f 11/37/10 12/38/10 7/39/10 3/40/10
f 10/41/11 21/42/11 24/43/11 12/44/11
f 5/45/12 22/46/12 21/47/12 10/48/12
f 7/49/13 23/50/13 22/51/13 5/52/13
f 12/53/14 24/54/14 23/55/14 7/56/14
f 11/57/15 27/58/15 26/59/15 9/60/15
f 3/61/16 28/62/16 27/63/16 11/64/16
f 1/65/17 25/66/17 28/67/17 3/68/17
f 9/69/18 26/70/18 25/71/18 1/72/18
f 61/73/19 62/74/19 63/75/19 64/76/19
f 15/77/20 22/78/20 23/79/20 16/80/20
f 83/81/21 84/82/21 85/83/21 86/84/21
f 13/85/22 24/86/22 21/87/22 14/88/22
f 65/89/23 66/90/23 67/91/23 68/92/23
f 17/93/24 26/94/24 27/95/24 18/96/24
f 79/97/25 81/98/25 82/99/25 80/100/25
f 19/101/26 28/102/26 25/103/26 20/104/26
f 30/105/27 29/106/27 20/107/27 25/108/27
f 31/109/28 30/110/28 25/111/28 26/112/28
f 32/113/29 31/114/29 26/115/29 17/116/29
f 72/117/30 71/118/30 73/119/30 74/120/30
f 34/121/31 33/122/31 18/123/31 27/124/31
f 35/125/32 34/126/32 27/127/32 28/128/32
f 36/129/33 35/130/33 28/131/33 19/132/33
f 77/133/34 78/134/34 76/135/34 75/136/34
f 38/137/35 37/138/35 33/139/35 34/140/35
f 39/141/36 38/142/36 34/143/36 35/144/36
f 40/145/37 39/146/37 35/147/37 36/148/37
f 79/149/38 80/150/38 78/151/38 77/152/38
f 42/153/39 41/154/39 16/155/39 23/156/39
f 43/157/40 42/158/40 23/159/40 24/160/40
f 44/161/41 43/162/41 24/163/41 13/164/41
f 88/165/42 87/166/42 89/167/42 90/168/42
f 46/169/43 45/170/43 41/171/43 42/172/43
f 47/173/44 46/174/44 42/175/44 43/176/44
f 48/177/45 47/178/45 43/179/45 44/180/45
f 83/181/46 86/182/46 87/183/46 88/184/46
f 50/185/47 49/186/47 14/187/47 21/188/47
f 51/189/48 50/190/48 21/191/48 22/192/48
f 52/193/49 51/194/49 22/195/49 15/196/49
f 70/197/50 69/198/50 92/199/50 91/200/50
f 54/201/51 53/202/51 49/203/51 50/204/51
f 55/205/52 54/206/52 50/207/52 51/208/52
f 56/209/53 55/210/53 51/211/53 52/212/53
f 61/213/54 64/214/54 69/215/54 70/216/54
f 58/217/55 57/218/55 29/219/55 30/220/55
f 59/221/56 58/222/56 30/223/56 31/224/56
f 60/225/57 59/226/57 31/227/57 32/228/57
f 65/229/58 68/230/58 71/231/58 72/232/58
f 75/233/59 73/234/59 17/235/59 18/236/59
f 74/237/60 76/238/60 19/239/60 20/240/60
f 91/241/61 89/242/61 13/243/61 14/244/61
f 90/245/62 92/246/62 15/247/62 16/248/62
f 62/249/63 61/250/63 53/251/63 54/252/63
f 63/253/64 62/254/64 54/255/64 55/256/64
f 64/257/65 63/258/65 55/259/65 56/260/65
f 84/261/66 83/262/66 45/263/66 46/264/66
f 85/265/67 84/266/67 46/267/67 47/268/67
f 86/269/68 85/270/68 47/271/68 48/272/68
f 66/273/69 65/274/69 57/275/69 58/276/69
f 67/277/70 66/278/70 58/279/70 59/280/70
f 68/281/71 67/282/71 59/283/71 60/284/71
f 81/285/72 79/286/72 37/287/72 38/288/72
f 82/289/73 81/290/73 38/291/73 39/292/73
f 80/293/74 82/294/74 39/295/74 40/296/74
f 73/297/75 71/298/75 32/299/75 17/300/75
f 72/301/76 74/302/76 20/303/76 29/304/76
f 76/305/77 78/306/77 36/307/77 19/308/77
f 77/309/78 75/310/78 18/311/78 33/312/78
f 78/313/79 80/314/79 40/315/79 36/316/79
f 79/317/80 77/318/80 33/319/80 37/320/80
f 89/321/81 87/322/81 44/323/81 13/324/81
f 88/325/82 90/326/82 16/327/82 41/328/82
f 87/329/83 86/330/83 48/331/83 44/332/83
f 83/333/84 88/334/84 41/335/84 45/336/84
f 92/337/85 69/338/85 52/339/85 15/340/85
f 70/341/86 91/342/86 14/343/86 49/344/86
f 69/345/87 64/346/87 56/347/87 52/348/87
f 61/349/88 70/350/88 49/351/88 53/352/88
f 71/353/89 68/354/89 60/355/89 32/356/89
f 65/357/90 72/358/90 29/359/90 57/360/90