# Made in Blockbench 4.2.4
mtllib ampul.mtl

o cube
v -0.06875000000000003 -0.10624999999999972 0.0375
v 0.04562500000000003 -0.10624999999999972 0.0375
v -0.06875000000000003 -0.02523148148148134 0.0375
v 0.04562500000000003 -0.02523148148148134 -0.0375
v 0.04562500000000003 -0.02523148148148134 0.0375
v -0.06875000000000003 -0.02523148148148134 -0.0375
v -0.06875000000000003 0.05578703703703687 0.0375
v 0.04562500000000003 0.05578703703703687 -0.0375
v 0.04562500000000003 0.05578703703703687 0.0375
v -0.06875000000000003 0.05578703703703687 -0.0375
v -0.03244047619047624 0.11249999999999995 0.022500000000000003
v 0.009315476190476192 0.11249999999999995 -0.022500000000000003
v 0.009315476190476192 0.11249999999999995 0.022500000000000003
v -0.03244047619047624 0.11249999999999995 -0.022500000000000003
v -0.06875000000000003 -0.10624999999999972 -0.0375
v 0.04562500000000003 -0.10624999999999972 -0.0375
vt 0.5 0.875
vt 0.625 0.875
vt 0.625 1
vt 0.5 1
vt 0.25 1
vt 0 1
vt 0 0.875
vt 0.25 0.875
vt 0.625 0.875
vt 0.5 0.875
vt 0.5 0.75
vt 0.625 0.75
vt 0.375 0.5
vt 0.25 0.5
vt 0.25 0.375
vt 0.375 0.375
vt 0.25 0.875
vt 0 0.875
vt 0 0.75
vt 0.25 0.75
vt 0.625 0.75
vt 0.5 0.75
vt 0.5 0.625
vt 0.625 0.625
vt 0.25 0.75
vt 0 0.75
vt 0 0.625
vt 0.25 0.625
vt 0.5 0.5
vt 0.375 0.5
vt 0.375 0.375
vt 0.5 0.375
vt 0.15612499999999999 0.625
vt 0.0726125 0.625
vt 0 0.5
vt 0.22875 0.5
vt 0.47 0.625
vt 0.38 0.625
vt 0.35 0.5
vt 0.5 0.5
vt 0.4273875 0.75
vt 0.343875 0.75
vt 0.27125 0.625
vt 0.5 0.625
vt 0.12000000000000001 0.5
vt 0.030000000000000006 0.5
vt 0 0.375
vt 0.15000000000000002 0.375
vt 0.5 1
vt 0.25 1
vt 0.25 0.875
vt 0.5 0.875
vt 0.25 0.75
vt 0.5 0.75
vt 0.5 0.875
vt 0.25 0.875
vn 0 1 0
vn 0 0 1
vn 1 0 0
vn -1 0 0
vn 0 0 1
vn 1 0 0
vn 0 0 -1
vn -1 0 0
vn 0 0.25569733123089383 0.9667568850550788
vn 0.84218220532642 0.5391930387454273 0
vn 0 0.25569733123089367 -0.9667568850550788
vn -0.8421822053264202 0.5391930387454269 0
vn 0 0 -1
vn 0 -1 0
usemtl m_1
f 11/1/1 13/2/1 12/3/1 14/4/1
f 5/5/2 3/6/2 1/7/2 2/8/2
f 4/9/3 5/10/3 2/11/3 16/12/3
f 3/13/4 6/14/4 15/15/4 1/16/4
f 9/17/5 7/18/5 3/19/5 5/20/5
f 8/21/6 9/22/6 5/23/6 4/24/6
f 10/25/7 8/26/7 4/27/7 6/28/7
f 7/29/8 10/30/8 6/31/8 3/32/8
f 13/33/9 11/34/9 7/35/9 9/36/9
f 12/37/10 13/38/10 9/39/10 8/40/10
f 14/41/11 12/42/11 8/43/11 10/44/11
f 11/45/12 14/46/12 10/47/12 7/48/12
f 6/49/13 4/50/13 16/51/13 15/52/13
f 15/53/14 16/54/14 2/55/14 1/56/14